<?xml version="1.0" standalone="no"?>
<!DOCTYPE svg PUBLIC "-//W3C//DTD SVG 1.1//EN" "http://www.w3.org/Graphics/SVG/1.1/DTD/svg11.dtd" >
<svg>
<metadata>
Created by FontForge 20110222 at Mon Jun 24 08:59:24 2013
 By www-data
claudeserieux@gmail.com  Based on Polonaise from Phil Martin (1923-2005)
</metadata>
<defs>
<font id="ChopinScript" horiz-adv-x="1061" >
  <font-face 
    font-family="ChopinScript"
    font-weight="500"
    font-stretch="normal"
    units-per-em="1000"
    panose-1="3 0 6 3 0 0 0 0 0 0"
    ascent="800"
    descent="-200"
    x-height="300"
    cap-height="678"
    bbox="-449 -427 1611 930"
    underline-thickness="50"
    underline-position="-100"
    stemh="12"
    stemv="12"
    unicode-range="U+0020-FB01"
  />
    <missing-glyph />
    <glyph glyph-name="space" unicode=" " horiz-adv-x="270" 
 />
    <glyph glyph-name="exclam" unicode="!" horiz-adv-x="328" 
d="M411 641c0 -39 -38 -105 -170 -293l-108 -168h-11s20 38 30 61l146 344c22 54 58 95 87 95c16 0 26 -16 26 -39zM97 50c0 -30 -28 -60 -58 -60c-25 0 -42 21 -42 50c0 30 28 60 58 60c25 0 42 -21 42 -50z" />
    <glyph glyph-name="quotedbl" unicode="&#x22;" horiz-adv-x="265" 
d="M301 655c0 -38 -64 -111 -107 -193h-7c44 85 69 208 103 208c7 0 11 -8 11 -15zM406 655c0 -38 -64 -111 -107 -193h-7c44 85 69 208 103 208c7 0 11 -8 11 -15z" />
    <glyph glyph-name="numbersign" unicode="#" horiz-adv-x="265" 
d="M131 294h-64l6 11h62c33 73 65 132 81 132c7 0 11 -9 11 -16c0 -16 -20 -62 -49 -116h64c33 73 65 132 81 132c7 0 11 -9 11 -16c0 -16 -20 -62 -49 -116h49l-6 -11h-49c-14 -28 -30 -57 -46 -86h49l-6 -12h-50c-28 -49 -53 -95 -69 -126h-18c15 29 35 75 56 126h-76
c-28 -49 -53 -95 -69 -126h-18c15 29 35 75 56 126h-73l6 12h73c12 29 24 58 37 86zM238 294h-66c-14 -28 -30 -57 -46 -86h75c12 29 24 58 37 86z" />
    <glyph glyph-name="dollar" unicode="$" horiz-adv-x="370" 
d="M336 426c0 -32 -24 -59 -54 -59c-25 0 -38 14 -38 37c0 7 0 15 1 22c12 -7 23 -11 31 -11c14 0 24 12 24 29c0 29 -24 50 -56 50c-35 0 -62 -27 -62 -61c0 -15 8 -50 17 -71l31 -67c11 -25 16 -51 16 -76c0 -76 -52 -125 -130 -125c-15 0 -34 0 -58 6l-52 -97l-17 6
l53 99c-39 27 -54 63 -54 96c0 51 41 96 89 96c38 0 68 -27 68 -62c0 -28 -23 -54 -49 -54c-16 0 -28 10 -44 35c23 3 35 11 35 25c0 12 -11 21 -25 21c-28 0 -54 -35 -54 -72c0 -43 35 -76 82 -76c42 0 83 39 83 78c0 11 -5 31 -16 58l-33 91c-6 18 -10 38 -10 54
c0 66 50 112 124 112c6 0 14 0 19 -1l33 61l14 -6l-31 -59c41 -12 63 -48 63 -79z" />
    <glyph glyph-name="percent" unicode="%" horiz-adv-x="504" 
d="M491 599c0 -27 -32 -54 -118 -101c-101 -152 -258 -347 -282 -376c-38 -46 -82 -128 -82 -128s-6 -6 -20 -6h-12c-14 0 -25 -28 -25 -28l-12 1c31 95 59 139 128 210l68 74c80 90 103 116 197 240l-73 -13c-31 -88 -94 -139 -137 -139c-35 0 -65 31 -65 70
c0 74 86 190 162 190c30 0 48 -22 48 -58c0 -16 -2 -32 -5 -46c40 3 50 4 88 20c51 73 88 107 120 107c12 0 20 -7 20 -17zM381 209c0 -80 -70 -200 -147 -200c-35 0 -64 32 -64 74c0 83 99 187 157 187c34 0 54 -23 54 -61zM474 594c0 5 -5 8 -9 8c-18 0 -42 -25 -78 -78
c55 32 87 52 87 70zM251 534c0 22 -10 34 -26 34s-31 -16 -31 -36c0 -25 18 -39 49 -41c5 15 8 30 8 43zM240 475c-44 10 -52 16 -68 52c-42 -73 -55 -111 -55 -144c0 -19 8 -27 25 -27c18 0 78 45 98 119zM362 198c0 26 -1 49 -26 49c-49 0 -108 -134 -108 -187
c0 -19 7 -30 21 -30c27 0 113 84 113 168z" />
    <glyph glyph-name="ampersand" unicode="&#x26;" horiz-adv-x="854" 
d="M867 548c0 -53 -49 -106 -122 -141c-68 -32 -158 -69 -178 -81c79 -4 123 -70 123 -135c0 -113 -100 -201 -230 -201c-100 0 -197 52 -230 133c-28 -7 -47 -9 -63 -9c-87 0 -160 62 -160 136c0 38 19 66 47 68c-1 -16 -2 -30 -2 -42c0 -75 53 -135 120 -135
c13 0 30 2 48 5c-7 33 -9 54 -9 73c0 128 90 231 221 231c-28 38 -35 55 -35 93c0 94 79 164 187 164c85 0 154 -49 154 -109c0 -43 -39 -83 -83 -83c-36 0 -56 14 -76 51l16 2c19 -27 35 -37 61 -37c34 0 66 31 66 67c0 41 -37 70 -88 70c-83 0 -154 -70 -154 -154
c0 -41 8 -65 55 -98l3 -11c-20 3 -37 4 -51 4c-83 0 -172 -94 -159 -216c37 24 76 38 76 38c6 68 84 126 201 163c198 61 244 90 244 155c0 24 -5 36 -26 64l7 7c29 -28 37 -43 37 -72zM584 182c0 35 -30 62 -68 62c-22 0 -41 -8 -62 -16c-4 -13 -5 -24 -5 -35
c0 -42 31 -70 73 -70c34 0 62 27 62 59zM669 190c0 66 -52 116 -118 116c-39 0 -58 -13 -89 -57c31 7 42 10 57 10c47 0 88 -38 88 -81c0 -40 -37 -71 -86 -71c-55 0 -113 35 -116 105c0 0 -43 -20 -73 -42c11 -74 88 -148 171 -148c90 0 166 77 166 168z" />
    <glyph glyph-name="quotesingle" unicode="'" horiz-adv-x="158" 
d="M253 624c0 -42 -14 -69 -51 -110c-15 -16 -34 -29 -46 -29c0 0 -9 1 -9 7c0 8 10 8 20 15c8 6 31 24 31 40c0 5 -2 11 -7 13c-20 10 -39 24 -39 49c0 31 26 61 56 61c23 0 45 -21 45 -46z" />
    <glyph glyph-name="parenleft" unicode="(" horiz-adv-x="340" 
d="M596 776c0 -43 -174 -81 -314 -318c-89 -151 -123 -333 -86 -482c25 -101 121 -169 121 -189c0 -9 -4 -16 -11 -16c-39 0 -193 154 -193 375c0 150 42 255 130 362c158 190 320 276 333 276c12 0 20 3 20 -8z" />
    <glyph glyph-name="parenright" unicode=")" horiz-adv-x="340" 
d="M320 409c0 -150 -42 -255 -130 -362c-158 -190 -320 -276 -333 -276c-12 0 -20 -3 -20 8c0 43 174 81 314 318c89 151 123 333 86 482c-25 101 -121 169 -121 189c0 9 4 16 11 16c39 0 193 -154 193 -375z" />
    <glyph glyph-name="asterisk" unicode="*" horiz-adv-x="268" 
d="M389 516c0 -20 -23 -37 -54 -37c-20 0 -39 11 -57 11c-5 0 -9 -5 -10 -10c-1 -6 2 -9 7 -14c27 -29 29 -32 29 -39c0 -20 -21 -38 -45 -38c-15 0 -28 12 -28 27c0 9 12 29 14 40c1 5 2 14 -2 14c-7 0 -27 -14 -44 -35c-13 -19 -29 -30 -46 -30c-14 0 -27 12 -27 25
c0 16 16 31 37 35c24 5 63 11 63 26c0 10 -27 7 -47 14c-11 4 -19 13 -19 25c0 21 22 35 43 35c24 0 28 -20 35 -39c3 -9 10 -21 14 -19c5 2 10 9 12 24c5 28 3 41 11 52c11 16 20 22 39 22c17 0 29 -10 29 -24c0 -9 -11 -24 -35 -45c-12 -11 -35 -24 -31 -29s20 0 48 20
c14 9 25 13 37 13c16 0 27 -9 27 -24z" />
    <glyph glyph-name="plus" unicode="+" horiz-adv-x="336" 
d="M262 276l-15 -15h-92l-69 -123h-70l69 123h-88l15 15h81l69 122h70l-69 -122h99z" />
    <glyph glyph-name="comma" unicode="," horiz-adv-x="244" 
d="M127 54c0 -42 -14 -69 -51 -110c-15 -16 -34 -29 -46 -29c0 0 -9 1 -9 7c0 8 10 8 20 15c8 6 31 24 31 40c0 5 -2 11 -7 13c-20 10 -39 24 -39 49c0 31 26 61 56 61c23 0 45 -21 45 -46z" />
    <glyph glyph-name="hyphen" unicode="-" horiz-adv-x="268" 
d="M234 190c0 -6 -11 -49 -78 -49c-13 0 -61 11 -102 11c-12 0 -21 -7 -30 -7c-3 0 -6 3 -6 6c0 9 13 18 25 25c24 14 33 21 59 21c21 0 61 -8 75 -8c30 0 41 7 53 7c4 0 4 -1 4 -6z" />
    <glyph glyph-name="period" unicode="." horiz-adv-x="244" 
d="M118 50c0 -30 -28 -60 -58 -60c-25 0 -42 21 -42 50c0 30 28 60 58 60c25 0 42 -21 42 -50z" />
    <glyph glyph-name="slash" unicode="/" horiz-adv-x="360" 
d="M416 656c-96 -114 -382 -523 -419 -620c-12 -32 -20 -42 -42 -46c-5 -1 -7 -1 -11 -1c-12 0 -14 -17 -21 -27c-2 -3 -4 -6 -8 -6c-5 0 -5 1 -5 6c0 24 22 72 70 151c116 188 198 296 419 545z" />
    <glyph glyph-name="zero" unicode="0" horiz-adv-x="522" 
d="M483 489c0 -190 -182 -497 -388 -497c-74 0 -130 58 -130 131c0 170 193 482 392 482c67 0 126 -33 126 -116zM414 516c0 54 -22 78 -53 78c-103 0 -332 -392 -332 -525c0 -31 31 -63 63 -63c124 0 322 369 322 510z" />
    <glyph glyph-name="one" unicode="1" horiz-adv-x="299" 
d="M319 531c0 -11 -159 -214 -224 -352c-50 -103 -75 -195 -86 -205c-6 -6 -66 -1 -66 -1s-23 -33 -35 -39c39 132 47 136 71 184c53 104 205 276 194 276c-13 0 -99 -83 -99 -83l-23 -11c10 13 223 236 263 236c11 0 5 -2 5 -5z" />
    <glyph glyph-name="two" unicode="2" horiz-adv-x="453" 
d="M416 444c0 -175 -272 -233 -367 -280c-53 -26 -131 -85 -131 -103c18 0 63 12 104 13c53 1 96 -18 136 -18c29 0 53 13 105 55c14 -44 -75 -135 -155 -135c-56 0 -93 21 -137 21c-111 0 -108 -18 -121 -18c-1 0 -6 3 -7 7v3c0 22 72 92 101 117c71 62 240 137 270 165
c66 62 123 147 123 202c0 45 -42 81 -92 81c-60 0 -121 -54 -121 -110c0 -27 19 -48 40 -48c12 0 26 12 26 24c0 13 -7 22 -8 32c49 11 56 -30 56 -45c0 -32 -27 -57 -63 -57c-42 0 -72 31 -72 76c0 75 90 149 184 149c78 0 129 -50 129 -131z" />
    <glyph glyph-name="three" unicode="3" horiz-adv-x="486" 
d="M519 549l-306 -217c47 -5 117 -43 117 -137c0 -118 -126 -230 -259 -230c-74 0 -131 56 -131 125c0 57 46 110 96 110c35 0 66 -32 66 -66c0 -32 -24 -57 -55 -57c-12 0 -27 9 -36 28c24 6 34 14 34 24c0 18 -10 32 -30 32c-36 0 -63 -32 -63 -74c0 -49 35 -83 95 -83
c113 0 205 151 205 230c0 35 -31 60 -70 60c-30 0 -55 -25 -62 -25c-5 0 -15 4 -15 7l263 182c-29 8 -74 26 -122 24c-49 -2 -91 -25 -120 -35c0 0 55 102 155 102c43 0 85 -24 154 -24c24 0 45 6 84 24z" />
    <glyph glyph-name="four" unicode="4" horiz-adv-x="473" 
d="M445 585c0 0 1 -13 -2 -22c-16 -43 -64 -76 -81 -90c-162 -127 -376 -241 -376 -299c0 -17 52 -28 98 -25l73 4c7 7 74 125 216 281c5 5 16 20 26 20c4 0 -170 -295 -170 -295l129 10c-11 -22 -13 -30 -23 -47c-30 0 -92 5 -116 5c-19 -38 -55 -145 -74 -145
c-17 0 -51 10 -51 10s-23 -32 -37 -37c9 60 74 153 85 175l-101 3c-43 2 -84 5 -84 32c0 43 175 154 278 261l126 137l56 -3z" />
    <glyph glyph-name="five" unicode="5" horiz-adv-x="451" 
d="M479 584c0 -10 -9 -19 -17 -30c-24 -33 -73 -57 -78 -57c-54 0 -98 8 -133 8c-29 0 -58 -18 -72 -29l-62 -107c34 15 70 20 93 20c63 0 122 -68 122 -144c0 -140 -137 -269 -284 -269c-74 0 -129 48 -129 111c0 53 45 102 95 102c36 0 67 -31 67 -66
c0 -28 -22 -54 -52 -54c-15 0 -23 8 -32 29c21 3 30 10 30 28c0 17 -16 29 -35 29c-28 0 -60 -30 -60 -69c0 -51 36 -89 104 -89c110 0 216 199 216 282c0 53 -34 92 -84 92c-54 0 -85 -71 -97 -71c-6 0 -2 13 12 37l106 185c21 37 68 53 98 53c43 0 69 -21 96 -21
c39 0 81 34 93 34c3 0 3 0 3 -4z" />
    <glyph glyph-name="six" unicode="6" horiz-adv-x="481" 
d="M489 522c0 -33 -31 -64 -66 -64c-25 0 -46 21 -46 46c0 11 1 17 15 21c10 -13 21 -21 28 -21c17 0 30 18 30 39c0 31 -32 45 -66 45c-106 0 -189 -166 -226 -239c23 15 73 29 94 29c62 0 111 -57 111 -129c0 -136 -133 -273 -246 -273c-76 0 -138 62 -138 137
c0 93 48 216 125 315c81 108 183 171 280 171c57 0 105 -35 105 -77zM294 291c0 45 -24 66 -63 66c-46 0 -72 -17 -99 -59c-49 -75 -81 -200 -81 -245c0 -35 21 -59 56 -59c58 0 187 180 187 297z" />
    <glyph glyph-name="seven" unicode="7" horiz-adv-x="436" 
d="M470 591c0 -24 -169 -196 -339 -388c-66 -74 -123 -204 -131 -204c-9 0 -21 10 -34 11c-40 3 -56 -41 -67 -45c-2 4 2 12 2 23c0 33 135 255 261 333c150 93 241 195 252 211c-21 0 -51 -11 -84 -14c-59 -6 -105 15 -151 4c-38 -9 -90 -42 -90 -42c42 83 75 116 145 116
c43 0 95 -23 155 -23c29 0 64 26 70 26s11 -3 11 -8z" />
    <glyph glyph-name="eight" unicode="8" horiz-adv-x="520" 
d="M501 479c0 -72 -70 -128 -187 -152c13 -18 57 -84 57 -142c0 -111 -101 -199 -227 -199c-97 0 -176 70 -176 151s58 145 227 184c-19 37 -27 71 -27 99c0 95 81 171 189 171c81 0 144 -48 144 -112zM438 500c0 52 -28 81 -81 81c-44 0 -118 -50 -118 -116
c0 -59 37 -110 62 -124c83 29 137 90 137 159zM291 161c0 49 -66 123 -85 144c-78 -7 -161 -84 -161 -176c0 -70 44 -129 99 -129c74 0 147 83 147 161z" />
    <glyph glyph-name="nine" unicode="9" horiz-adv-x="490" 
d="M429 473c0 -176 -195 -484 -402 -484c-62 0 -116 40 -116 82c0 28 34 63 69 63c26 0 46 -15 46 -39c-3 -8 -6 -18 -14 -32c-10 14 -24 24 -32 24c-16 0 -28 -16 -28 -34c0 -29 22 -50 57 -50c73 0 134 57 228 228c-39 -17 -60 -18 -91 -18c-56 0 -98 56 -98 126
c0 134 125 266 255 266c74 0 126 -56 126 -132zM363 533c0 30 -16 61 -46 61c-85 0 -203 -221 -203 -300c0 -36 27 -66 63 -66c94 0 186 195 186 305z" />
    <glyph glyph-name="colon" unicode=":" horiz-adv-x="244" 
d="M190 253c0 -30 -28 -60 -58 -60c-25 0 -42 21 -42 50c0 30 28 60 58 60c25 0 42 -21 42 -50zM74 45c0 -30 -28 -60 -58 -60c-25 0 -42 21 -42 50c0 30 28 60 58 60c25 0 42 -21 42 -50z" />
    <glyph glyph-name="semicolon" unicode=";" horiz-adv-x="244" 
d="M180 253c0 -30 -28 -60 -58 -60c-25 0 -42 21 -42 50c0 30 28 60 58 60c25 0 42 -21 42 -50zM83 54c0 -42 -14 -69 -51 -110c-15 -16 -34 -29 -46 -29c0 0 -9 1 -9 7c0 8 10 8 20 15c8 6 31 24 31 40c0 5 -2 11 -7 13c-20 10 -39 24 -39 49c0 31 26 61 56 61
c23 0 45 -21 45 -46z" />
    <glyph glyph-name="less" unicode="&#x3c;" horiz-adv-x="315" 
d="M238 89l-164 140l266 140l-10 -29l-211 -111l130 -112z" />
    <glyph glyph-name="equal" unicode="=" horiz-adv-x="268" 
d="M281 255h-170l9 25h170zM246 171h-172l9 25h172z" />
    <glyph glyph-name="greater" unicode="&#x3e;" horiz-adv-x="316" 
d="M315 229l-266 -140l11 28l210 112l-129 111l10 29z" />
    <glyph glyph-name="question" unicode="?" horiz-adv-x="522" 
d="M506 553c0 -67 -69 -153 -157 -195l-208 -103c-15 -8 -32 -31 -32 -46c0 -18 14 -30 38 -30c7 0 15 1 25 4l11 -7c-19 -5 -34 -7 -46 -8c-23 0 -42 17 -42 41c0 19 12 41 29 54c5 4 53 35 148 95c23 14 51 38 83 68c55 53 78 91 78 130c0 53 -45 91 -107 91
c-34 0 -66 -9 -96 -25c-67 -38 -122 -107 -122 -159c0 -29 21 -49 48 -49c15 0 32 5 55 18l10 -3c-25 -18 -38 -26 -67 -26c-32 0 -57 24 -57 59c0 110 128 217 260 217c83 0 149 -56 149 -126zM111 50c0 -30 -28 -60 -58 -60c-25 0 -42 21 -42 50c0 30 28 60 58 60
c25 0 42 -21 42 -50z" />
    <glyph glyph-name="at" unicode="@" horiz-adv-x="691" 
d="M615 348c-20 -74 -83 -170 -144 -219c-38 -30 -67 -46 -104 -46c-67 0 -90 22 -74 93c-35 -47 -65 -59 -95 -59c-39 0 -68 33 -68 99c0 90 93 216 224 216c21 0 36 -3 51 -24c0 0 11 15 21 15c12 0 30 -6 42 -6c8 0 22 23 33 27l-131 -246c-10 -18 -20 -37 -21 -52
c0 -27 18 -38 44 -38c23 0 48 19 81 49c50 46 103 128 120 192c36 133 -37 217 -169 217c-168 0 -340 -130 -393 -327c-50 -188 41 -287 203 -287c127 0 247 70 333 194h20c-26 -45 -51 -74 -89 -107c-79 -69 -178 -108 -272 -108c-176 0 -270 132 -223 310
c52 193 238 343 423 343c149 0 225 -99 188 -236zM390 390c0 11 -7 24 -21 24c-87 0 -180 -193 -180 -249c0 -21 3 -33 20 -33c37 0 63 39 79 66c41 70 102 176 102 192z" />
    <glyph glyph-name="A" unicode="A" 
d="M1229 -15c0 -84 -102 -151 -183 -153c-153 -3 -254 86 -278 103c-21 -11 -203 -128 -376 -128c-231 0 -400 157 -400 371c0 216 142 360 355 360c24 0 47 -8 58 -12v-12c-16 6 -39 13 -58 13c-222 0 -344 -163 -344 -349c0 -206 165 -361 389 -361c165 0 366 126 366 126
l-36 32s-102 -22 -102 27c0 47 105 -3 105 -3c12 0 73 56 78 69c10 24 81 175 81 242c-30 -6 -90 -9 -122 -9c-54 -78 -187 -330 -366 -330c-103 0 -157 57 -157 130c0 111 112 215 265 215h249s30 65 78 126c146 184 290 216 290 216c6 0 10 -9 10 -16
c0 -36 -127 -65 -145 -299c0 0 194 63 194 244c0 143 -146 255 -329 255c-199 0 -339 -142 -339 -259c0 -147 105 -182 105 -182l-3 -13s-116 37 -116 195c0 123 148 273 353 273c192 0 343 -119 343 -269c0 -195 -210 -262 -210 -262s-7 -58 -10 -71
c-10 -41 -78 -191 -228 -274c12 -11 25 -23 30 -28c216 134 244 149 319 149s134 -52 134 -116zM1056 617c-25 0 -119 -72 -180 -142c-68 -77 -98 -145 -103 -159c16 0 80 3 112 9c24 156 189 292 171 292zM1215 -16c0 59 -51 103 -119 103c-80 0 -110 -22 -310 -144
c0 0 106 -97 260 -97c79 0 169 67 169 138zM696 -10c0 0 -55 30 -55 9c0 -25 55 -9 55 -9zM741 299h-201c-138 0 -254 -95 -254 -198c0 -85 44 -116 110 -116c157 0 287 226 345 314z" />
    <glyph glyph-name="B" unicode="B" horiz-adv-x="1064" 
d="M1304 544c0 -32 -40 -63 -84 -70l-10 10c48 10 79 36 79 60c0 51 -94 98 -180 98c-50 0 -79 -9 -140 -35c30 -33 76 -73 76 -133c0 -69 -32 -108 -123 -161c36 -44 48 -83 48 -154c24 8 79 41 108 67l8 -8c-42 -36 -86 -61 -122 -76c-32 -82 -120 -170 -258 -168
c-42 1 -68 18 -68 48c0 97 166 113 225 113c28 26 41 96 27 172c-10 -2 -11 -2 -26 -2c-14 0 -40 12 -40 29c0 16 21 22 32 22c24 0 48 -22 48 -22s80 70 80 140c0 87 -26 112 -40 120c-40 -20 -112 -120 -112 -120c-48 -70 -48 -172 -100 -252
c-101 -156 -206 -248 -425 -248c-170 0 -297 108 -297 281c0 195 165 364 354 364c42 0 93 -16 124 -29c66 38 109 80 260 80c115 0 163 -36 202 -52c34 12 76 36 159 36c98 0 195 -54 195 -110zM887 324c0 0 -15 19 -31 19c-8 0 -12 -3 -12 -9c0 -8 12 -14 20 -14
c11 0 23 4 23 4zM629 352c0 70 -29 161 -141 223c-47 -45 -91 -86 -91 -164c0 -87 54 -143 133 -143c38 0 61 12 84 33c10 23 15 32 15 51zM860 120c-80 1 -210 -19 -210 -98c0 -19 20 -30 42 -30c92 -2 160 120 168 128zM931 607c0 0 -75 53 -183 53
c-124 0 -178 -29 -250 -78c96 -59 143 -129 143 -230c0 -19 -2 -15 -5 -35c15 24 30 41 31 70c1 27 -13 50 -21 67l11 3c9 -16 22 -31 23 -69c0 -37 -23 -71 -54 -102c-27 -81 -101 -142 -187 -142v14c30 -5 132 21 162 112c0 0 -44 -15 -71 -15c-89 0 -144 66 -144 157
c0 98 71 149 91 168c-20 11 -76 29 -113 29c-171 0 -343 -162 -343 -354c0 -152 110 -268 286 -268c81 0 178 49 249 124c80 84 110 190 124 226c51 134 159 234 251 270z" />
    <glyph glyph-name="C" unicode="C" horiz-adv-x="933" 
d="M1153 -254c0 -24 -7 -33 -22 -54c-3 3 -3 3 -5 6c14 26 15 29 15 48c0 76 -123 148 -265 148c-201 0 -368 -154 -552 -154c-198 0 -321 155 -321 347c0 231 196 446 451 446c93 0 194 -19 197 -16c0 0 172 102 325 102c80 0 101 -29 101 -58c0 -44 -51 -91 -161 -91
c-57 0 -192 19 -192 19s-76 -62 -129 -126c-75 -90 -127 -197 -129 -268c0 -26 8 -46 22 -60c-13 92 88 322 265 322c49 0 79 -35 79 -92c0 -163 -192 -309 -294 -290c0 0 23 -31 63 -31c102 0 204 140 204 140l8 -9s-98 -145 -212 -145c-60 0 -97 56 -97 56s-95 37 -95 177
c0 187 201 326 229 342c0 3 -117 17 -184 17c-250 0 -440 -218 -440 -435c0 -182 117 -336 310 -336c166 0 357 154 552 154c153 0 277 -67 277 -159zM1066 561c0 35 -38 47 -90 47c-90 0 -231 -109 -231 -109c68 -10 143 -18 171 -18c60 0 150 14 150 80zM798 272
c0 51 -29 67 -66 67c-106 0 -228 -166 -228 -281c0 -23 2 -29 11 -52c22 -15 29 -14 41 -14c116 0 242 193 242 280z" />
    <glyph glyph-name="D" unicode="D" horiz-adv-x="852" 
d="M279 58c0 0 -60 64 -157 66c-38 0 -63 -26 -63 -60c0 -42 39 -74 88 -74c60 0 132 68 132 68zM410 400c0 88 -88 137 -170 137c-84 0 -155 -80 -155 -80s29 -179 191 -179c60 0 134 50 134 122zM795 395c0 -193 -157 -423 -330 -423c-53 0 -113 26 -147 50
c0 0 -63 -49 -147 -49c-76 0 -129 35 -129 91c0 39 35 73 95 73c71 0 137 -52 158 -66c37 25 59 141 121 263c92 182 182 271 279 308c-56 80 -159 131 -288 131c-244 0 -333 -177 -324 -299c11 10 73 75 157 75c106 0 182 -65 182 -149c0 -81 -80 -134 -146 -134
c-165 0 -201 178 -201 178s-56 -64 -56 -157c0 -37 8 -58 29 -112l-9 -6c-14 29 -32 73 -32 118c0 99 57 161 65 174c-14 148 87 324 335 324c123 0 236 -46 308 -136c36 11 74 16 112 16c70 0 127 -24 154 -52l-4 -8c-63 42 -84 48 -150 48c-39 0 -74 -6 -103 -16
c44 -62 71 -142 71 -242zM703 629c-145 -65 -166 -250 -217 -379c-59 -149 -107 -177 -151 -213c17 -10 51 -35 81 -35c174 0 327 262 327 474c0 56 -13 109 -40 153z" />
    <glyph glyph-name="E" unicode="E" horiz-adv-x="973" 
d="M682 378h-1c9 -12 38 -14 39 -33c0 -8 -4 -11 -12 -12c-21 -3 -40 23 -40 23c-73 44 -207 -39 -207 -173c0 -108 71 -197 161 -197c123 0 227 102 227 221c0 63 -35 106 -88 106c-83 0 -163 -87 -163 -158c0 -46 31 -80 70 -80c100 0 105 133 105 165h12
c3 -50 -10 -179 -117 -179c-48 0 -84 42 -84 94c0 81 88 172 177 172c60 0 102 -50 102 -120c0 -132 -115 -239 -241 -239c-167 0 -256 96 -256 222c0 120 85 228 248 216c-19 28 -29 55 -33 81c-46 13 -105 23 -191 23c-230 0 -378 -100 -378 -215c0 -8 12 -51 15 -55
l-12 -8s-16 29 -16 62c0 126 153 229 391 229c89 0 148 -8 191 -18c-2 91 82 159 185 158c74 -1 134 -56 134 -120c0 -56 -62 -107 -134 -107c-40 0 -70 11 -105 24c1 -31 8 -60 21 -82zM660 476h-1c32 -15 60 -28 105 -28c56 0 122 39 122 95c0 46 -41 85 -90 85
c-92 -1 -133 -78 -136 -152z" />
    <glyph glyph-name="F" unicode="F" horiz-adv-x="1026" 
d="M1424 579c0 -3 -1 -6 -2 -10c-8 -33 -54 -78 -120 -78c-113 0 -176 71 -277 103c-95 30 -141 41 -231 41c-170 0 -222 -60 -222 -60c18 -10 114 -106 114 -243c0 -160 -133 -300 -252 -300c-81 0 -161 69 -161 144c0 39 6 52 17 87c4 -5 7 -11 7 -14
c-8 -23 -13 -43 -13 -73c0 -68 73 -133 150 -133c123 0 241 142 241 289c0 125 -83 213 -115 237c-38 -18 -115 -131 -115 -216c0 -92 57 -149 139 -135v-11c-89 -15 -150 44 -150 146c0 123 100 211 110 225c0 0 -62 42 -154 42c-204 0 -350 -184 -350 -378
c0 -213 144 -379 350 -379c71 0 157 34 219 95c50 49 55 43 191 411l-38 8l5 15l40 -8s35 53 62 75c66 56 105 62 219 66v-4c-6 -11 -90 -14 -122 -30c-51 -25 -87 -120 -87 -120l59 -11c10 33 25 68 66 68c14 0 32 -10 32 -34c0 -29 -36 -52 -59 -55
c4 -68 -6 -163 -85 -163c-9 0 -20 3 -34 16l7 7c13 -5 17 -7 28 -7c33 0 35 79 40 149l-60 9s-66 -258 -135 -344c-67 -84 -215 -153 -348 -153c-224 0 -382 164 -382 389c0 217 167 388 382 388c84 0 162 -42 162 -42s105 98 242 98c238 0 344 -185 508 -185
c78 0 122 78 122 78zM1019 399c0 8 -8 11 -15 11c-14 0 -35 -48 -27 -48s42 9 42 37z" />
    <glyph glyph-name="G" unicode="G" horiz-adv-x="913" 
d="M1367 -60c-23 -97 -78 -157 -186 -157c-149 0 -227 113 -478 231l-73 -92s-108 -294 -339 -294c-135 0 -175 125 -165 186c0 0 -127 93 -127 289c0 229 175 399 398 399c66 0 171 -21 171 -21s194 153 383 153c57 0 101 -27 101 -60c0 -44 -102 -99 -265 -118
c-50 -6 -102 -4 -120 -1c0 0 -103 -72 -181 -216c-34 -64 -42 -94 -45 -172c0 0 52 3 85 3c41 -2 104 -15 104 -15c70 187 119 264 144 264c16 0 45 -14 45 -14l30 42l10 -4l-179 -303l23 -13s30 35 84 58c50 21 90 18 90 18l2 -10s-39 1 -86 -18c-52 -23 -63 -34 -81 -52
c276 -138 340 -230 469 -230c139 0 170 113 176 147h10zM1038 574c0 21 -27 39 -63 39c-62 0 -152 -30 -300 -146c0 0 74 -1 113 3c106 10 250 62 250 104zM694 18l-19 10l-34 -78zM615 43c0 0 -54 13 -89 15c-31 1 -82 -5 -82 -5s9 -60 61 -60c46 0 110 50 110 50zM555 470
c-35 6 -96 23 -158 23c-212 0 -388 -160 -388 -390c0 -156 87 -250 119 -277c4 14 23 83 115 156c61 50 147 73 147 73c-11 39 -17 64 -17 85c0 108 32 170 182 330zM630 37c-56 -36 -87 -55 -124 -55c-44 0 -73 17 -112 64c0 0 -79 -18 -145 -71
c-96 -77 -111 -157 -111 -157s87 -50 177 -50c143 0 272 123 282 136c12 28 27 100 33 133zM598 -111c0 0 -141 -131 -283 -131c-87 0 -171 39 -179 47c-8 -61 40 -168 155 -168c203 0 307 238 307 252z" />
    <glyph glyph-name="H" unicode="H" horiz-adv-x="940" 
d="M1200 565c0 -100 -204 -179 -315 -207c0 0 -83 -194 -137 -248c-49 -49 -97 -91 -139 -105c0 0 40 -27 66 -27c37 0 73 21 129 74v-12s-62 -71 -129 -71c-33 0 -81 30 -81 30s-30 -18 -57 -18c-18 0 -32 11 -32 28s12 28 33 28c20 0 33 -8 54 -20c50 42 64 49 86 93
c22 45 97 233 97 233c-98 -22 -135 -26 -172 -34c-21 -51 -33 -119 -107 -199c-74 -79 -166 -129 -288 -129c-43 0 -69 19 -69 19s-25 -56 -25 -129c0 -195 144 -289 255 -289c151 0 183 126 183 126l10 3s-31 -138 -193 -138c-147 0 -266 130 -266 298c0 39 5 68 26 134
c-16 10 -127 59 -127 209c0 216 215 258 229 261c-1 21 -8 60 18 106c52 96 156 149 243 149c145 0 174 -96 276 -168c0 0 51 12 81 3c16 -5 28 -11 28 -23c0 -14 -10 -27 -36 -27c-28 0 -72 30 -72 30s-52 -21 -75 -43c-34 -35 -49 -71 -72 -119c-9 -21 -11 -41 -16 -61
c0 0 136 23 172 33c25 50 51 79 89 124c50 60 170 125 273 125c37 0 60 -17 60 -39zM1191 565c0 18 -20 30 -51 30c-105 0 -230 -155 -252 -223c134 30 303 116 303 193zM867 542c0 33 -81 8 -81 8s81 -48 81 -8zM750 557c0 0 -125 125 -287 125c-99 0 -183 -67 -207 -107
c-19 -32 -16 -78 -15 -100c33 3 74 -4 99 -15c32 -12 56 -34 88 -77c35 17 81 47 100 63l4 -7c-32 -26 -64 -47 -98 -65c10 -17 15 -33 17 -46c3 -24 3 -39 3 -39l42 9s30 67 56 103c36 51 100 105 115 113c48 27 83 43 83 43zM418 377c0 0 -33 56 -81 74s-96 15 -96 15
s9 -101 107 -101c15 0 70 12 70 12zM579 8c0 0 -63 38 -63 0c0 -35 63 -5 63 0zM442 272c0 0 -51 -19 -93 -39c-87 -41 -144 -115 -151 -129c13 -7 20 -13 41 -13c164 0 203 181 203 181zM442 283c0 0 1 28 -2 43c-3 17 -16 42 -16 42s-46 -12 -75 -12
c-109 0 -118 110 -118 110s-220 -46 -220 -252c0 -145 110 -190 121 -199c6 16 37 80 49 88c0 0 -38 22 -38 78c0 66 37 126 119 154l2 -6c-75 -30 -111 -87 -111 -148c0 -47 30 -71 36 -71c28 39 72 92 156 132c43 21 97 41 97 41zM493 286c-9 0 -39 -9 -39 -9
s-42 -195 -217 -195c-26 0 -47 15 -47 15c-24 -28 -39 -69 -48 -86c0 0 27 -21 66 -21c201 0 270 258 285 296z" />
    <glyph glyph-name="I" unicode="I" horiz-adv-x="789" 
d="M1032 609c-52 -1 -93 -9 -120 -18c-186 -60 -246 -327 -246 -343c0 -5 77 28 107 60c19 21 39 60 57 115l9 -4c0 -6 -24 -83 -59 -121c-34 -37 -93 -60 -118 -65c-64 -188 -183 -261 -359 -261c-118 0 -291 71 -291 287c-8 42 -9 74 -9 107c0 181 153 312 300 312
c59 0 101 -22 101 -22l-2 -9s-47 22 -100 22c-135 0 -290 -124 -290 -303c0 -27 8 -72 8 -72s45 222 290 222c94 0 159 -54 159 -54c17 51 38 77 70 105c66 62 171 95 291 95c82 0 167 -20 195 -35c7 -5 4 -11 7 -18zM1014 615c-6 11 -87 39 -184 39
c-164 0 -311 -70 -351 -201c11 -17 33 -41 43 -95c6 -30 8 -87 8 -87s33 -24 49 -27c14 38 65 223 212 319c55 36 102 46 223 52zM519 288c-3 26 -2 47 -7 68c-6 27 -15 54 -36 84c0 0 3 -51 9 -80c7 -31 21 -51 34 -72zM519 266c-17 23 -36 54 -45 91c-9 35 -9 94 -9 94
s-58 56 -155 56c-245 0 -281 -220 -286 -241c0 0 59 -203 240 -203c197 0 243 173 255 203zM575 232c0 0 -29 10 -47 26c-52 -155 -150 -203 -264 -204c-171 -1 -226 156 -241 186c15 -196 166 -257 280 -257c77 0 218 115 272 249z" />
    <glyph glyph-name="J" unicode="J" horiz-adv-x="940" 
d="M1180 588c0 -10 -5 -18 -12 -18c-13 0 -24 8 -48 8c-60 0 -131 -15 -192 -68c-67 -70 -57 -55 -230 -442c0 0 29 -6 36 -6c47 0 114 39 150 172c2 -10 5 -18 5 -21c-3 -52 -70 -163 -156 -163c-11 0 -41 4 -41 4c-85 -187 -246 -258 -380 -258c-178 0 -303 130 -303 309
c0 128 51 178 67 209c11 53 65 303 316 304c111 0 184 -63 195 -73c7 5 118 117 324 117c141 0 234 -53 243 -54c21 -3 26 -9 26 -20zM1130 594v8c-4 7 -113 49 -219 49c-191 0 -308 -110 -315 -115c11 -12 34 -44 50 -80l-8 -8c-11 26 -37 66 -49 79
c-21 -16 -61 -78 -83 -138c18 -19 89 -73 89 -194c0 -30 -12 -84 -12 -84s15 -15 25 -15c128 270 147 387 320 464c58 27 100 31 202 34zM580 536c-13 16 -93 72 -188 72c-240 -1 -290 -249 -300 -281c39 60 96 125 247 125c73 0 134 -42 155 -56c0 0 50 114 86 140z
M581 195c0 71 -22 126 -79 179c-6 -38 -8 -74 -8 -90c0 -89 75 -161 75 -161s12 35 12 72zM562 108c0 0 -81 75 -81 176c0 36 9 99 9 99c-35 23 -88 57 -151 57c-183 0 -231 -108 -245 -132c-8 -204 124 -329 255 -329c143 0 213 120 213 129zM601 81c0 0 -14 14 -26 18
c0 0 -72 -132 -226 -132c-196 0 -283 213 -267 333c-50 -79 -61 -139 -61 -195c0 -165 129 -296 291 -296c143 0 252 168 289 272z" />
    <glyph glyph-name="K" unicode="K" horiz-adv-x="1052" 
d="M1149 686c0 0 -48 19 -71 19c-75 0 -126 -43 -160 -108c-35 -64 -56 -147 -87 -187c-30 -38 -86 -53 -138 -53c-45 0 -93 9 -93 9l-5 -18c66 0 158 -26 158 -106c0 -68 -8 -149 3 -173c30 -67 57 -77 84 -77c72 0 130 88 130 148c0 55 -36 90 -97 90v1c0 6 0 9 13 9
c59 0 98 -42 98 -100c0 -87 -84 -166 -174 -166c-71 0 -137 45 -141 116l-11 178c-3 45 -50 70 -64 70c0 0 -33 -137 -101 -227c-60 -79 -144 -134 -255 -134c-129 0 -240 98 -240 227c0 231 191 257 201 262c-18 136 103 283 273 283c90 0 112 -30 260 -140
c0 0 47 18 81 17c20 0 35 -7 35 -27c0 -23 -15 -31 -35 -31c-30 1 -69 18 -86 27c-42 -22 -98 -90 -124 -214c91 3 139 27 189 92c42 55 64 90 108 145c46 60 93 96 178 96c35 0 71 -21 71 -21v-7zM837 599c0 11 -11 15 -26 14c-27 0 -66 -13 -66 -13s39 -17 66 -18
c15 -1 26 3 26 17zM407 391c-43 50 -124 83 -194 65c16 -50 71 -81 109 -81c14 0 54 3 85 16zM717 603c-52 42 -186 96 -266 96c-119 0 -260 -94 -240 -230c60 10 140 4 207 -72c15 9 52 34 88 76l7 -8c-28 -30 -47 -51 -88 -77c24 -42 23 -77 23 -104
c0 -150 -132 -204 -204 -204c-57 0 -97 42 -97 108c0 60 37 120 103 147l2 -9s-93 -38 -93 -138c0 -62 36 -96 85 -96c101 0 192 76 192 192c0 72 -22 97 -22 97c-2 0 -41 -18 -91 -18c-53 0 -109 46 -121 90c-8 -3 -192 -25 -192 -249c0 -120 109 -215 228 -215
c124 0 194 105 267 379c22 81 131 198 212 235z" />
    <glyph glyph-name="L" unicode="L" horiz-adv-x="978" 
d="M910 217c0 -140 -156 -269 -336 -269c-90 0 -147 19 -273 84c-72 -44 -105 -57 -156 -57c-73 0 -141 30 -141 89c0 44 56 79 119 79c42 0 85 -13 165 -55c0 0 35 58 52 97c24 54 48 143 48 143s-60 -24 -99 -24c-118 0 -204 102 -204 222c0 150 123 262 287 262
c45 0 57 -1 87 -18c-27 3 -60 8 -87 8c-162 0 -277 -114 -277 -252c0 -110 79 -212 194 -212c30 0 79 16 103 30c48 197 75 221 121 282c51 67 113 102 150 102c58 0 79 -30 79 -70c0 -97 -75 -221 -250 -294c-23 -134 -42 -174 -138 -300c112 -39 162 -47 249 -47
c189 0 291 79 291 200c0 53 -24 87 -77 126l6 11c48 -28 87 -73 87 -137zM729 658c0 37 -14 60 -66 60c-81 0 -172 -166 -172 -337c108 41 238 184 238 277zM271 55c-20 13 -117 72 -169 72c-42 0 -85 -32 -85 -63c0 -39 47 -74 107 -74c46 0 110 30 147 65z" />
    <glyph glyph-name="M" unicode="M" horiz-adv-x="1121" 
d="M1460 658l-1 -11c-123 -9 -182 -37 -275 -91c-63 -36 -123 -150 -199 -305c-29 -55 -71 -151 -71 -207c0 -21 11 -48 32 -48c43 0 87 93 88 96c6 2 6 -1 11 2c-39 -84 -71 -113 -113 -113c-49 0 -81 42 -81 102c0 101 97 245 212 390c-52 -40 -117 -99 -170 -165
c-98 -121 -196 -284 -244 -335c-3 5 -5 11 -5 13c24 69 33 71 33 136c0 224 9 258 66 378c-88 -91 -163 -306 -214 -399c-38 -69 -147 -126 -251 -126c-151 0 -282 111 -282 240c0 145 111 260 237 260c108 0 195 -77 195 -174c0 -102 -93 -189 -177 -189
c-78 0 -120 58 -120 136c0 32 12 65 20 87l12 -3c-9 -22 -21 -56 -21 -84c0 -74 43 -125 109 -125c80 0 166 83 166 178c0 94 -85 163 -184 163c-122 0 -226 -115 -226 -249c0 -90 88 -229 271 -229c110 0 195 94 258 210c122 221 192 351 282 405c0 0 -153 52 -187 52
c-216 0 -213 -144 -213 -160c0 -63 42 -116 97 -116c14 0 36 6 51 21h6c-25 -36 -42 -46 -70 -46c-66 0 -116 54 -116 126c0 63 30 183 245 183c33 0 196 -54 196 -54c32 18 60 15 60 -3c0 -16 -24 -23 -43 -12c-26 -36 -44 -99 -53 -162c-7 -57 5 -95 -3 -152
c-7 -52 -28 -100 -39 -135c168 243 297 350 426 423c95 53 141 83 285 92z" />
    <glyph glyph-name="N" unicode="N" horiz-adv-x="1041" 
d="M1355 684c0 -35 -42 -66 -108 -66c-50 0 -93 17 -93 17s-20 -32 -41 -72c-70 -133 -98 -208 -226 -413c-57 -92 -98 -162 -113 -162c-7 0 -13 5 -13 11c0 5 39 81 39 133c0 77 -18 140 -15 228c1 59 3 69 15 150l-159 -315c-101 -193 -210 -284 -357 -284
c-171 0 -284 103 -284 256c0 182 151 327 326 327c34 0 67 -5 67 -5c6 90 75 198 162 237c51 23 100 27 198 27c114 0 367 -93 395 -106c27 30 75 81 141 81c39 0 66 -17 66 -44zM1346 684c0 21 -33 35 -57 35c-57 0 -109 -49 -129 -75c8 -2 39 -15 87 -15c52 0 99 21 99 55
zM1143 638c0 0 -280 106 -390 106c-75 0 -124 -18 -186 -48c-106 -51 -144 -147 -156 -213c81 -35 105 -72 131 -162c80 9 138 50 138 141c0 30 -17 72 -17 72l9 2s18 -48 18 -74c0 -82 -40 -140 -146 -154c0 -80 -10 -123 -53 -186c-53 -75 -144 -122 -221 -122
c-87 0 -154 67 -154 161c0 118 96 226 201 226c74 0 136 -59 136 -132c0 -29 -11 -54 -22 -76c0 0 -8 -2 -11 -2c14 30 23 54 23 78c0 65 -58 123 -126 123c-110 0 -191 -120 -191 -217c0 -88 62 -153 144 -153c71 0 166 50 213 118c50 72 52 135 52 183
c-81 12 -144 88 -142 170c0 0 -43 7 -67 7c-173 0 -318 -141 -318 -319c0 -148 113 -248 276 -248c136 0 249 89 346 276c65 123 144 290 158 315c44 78 150 168 150 168s-80 27 -132 27c-136 0 -269 -78 -269 -142c0 -27 32 -44 32 -44l-2 -9s-40 15 -40 53
c0 72 135 151 279 151c49 0 81 -7 154 -31c-91 -75 -115 -110 -115 -180c0 -17 40 -243 40 -254c0 -22 -7 -61 -34 -138c137 218 157 268 253 459c19 38 39 68 39 68zM533 321c-22 75 -38 117 -122 152c-4 -92 78 -143 122 -152z" />
    <glyph glyph-name="O" unicode="O" horiz-adv-x="600" 
d="M570 476c0 -58 -40 -181 -79 -250c-87 -152 -220 -250 -333 -250c-93 0 -158 82 -158 182c0 116 84 270 207 386c63 54 122 88 171 94h42c-94 -46 -121 -70 -181 -151c-108 -153 -165 -290 -165 -405c0 -60 36 -100 84 -100c76 0 168 86 249 233c73 132 108 237 108 315
c0 56 -17 81 -56 81c-89 0 -217 -153 -217 -277c0 -47 27 -75 63 -75c95 0 157 135 157 187c0 34 -20 59 -37 59c-9 0 -31 -5 -58 -36l-7 7c29 29 47 39 65 39c28 0 48 -34 48 -69c0 -77 -72 -198 -168 -198c-44 0 -74 33 -74 86c0 117 123 286 228 286
c59 0 111 -69 111 -144z" />
    <glyph glyph-name="P" unicode="P" horiz-adv-x="1046" 
d="M1259 630l-2 -6c-61 25 -115 31 -157 31c-71 0 -140 -34 -140 -34c0 -2 96 -72 96 -165c0 -108 -108 -195 -244 -195c-18 0 -42 0 -71 3c-67 -221 -283 -298 -429 -298c-189 0 -312 113 -312 284c0 195 165 365 357 365c59 0 113 -25 113 -25s78 94 249 94
c141 0 222 -53 222 -53s83 32 159 32c54 0 95 -4 159 -33zM984 487c0 92 -46 120 -46 120s-84 -46 -122 -139c0 0 -69 -179 -69 -182c0 0 20 -1 38 -1c105 0 199 94 199 202zM612 318c2 20 -3 112 -27 154c-33 57 -76 88 -112 104c-36 -57 -49 -87 -49 -126
c0 -83 62 -146 136 -146c20 0 37 6 52 14zM917 621c0 0 -60 55 -198 55c-160 0 -230 -81 -240 -91c30 -15 76 -38 115 -107c25 -44 31 -119 30 -153c7 8 25 25 35 48l3 -15s-20 -33 -38 -47c-12 -37 -69 -235 -280 -235c-133 0 -246 90 -246 233c0 33 12 60 18 72l10 3
c-13 -39 -18 -49 -18 -75c0 -136 113 -224 236 -224c210 0 264 212 266 220c-15 -6 -36 -10 -50 -10c-84 0 -147 68 -147 155c0 61 51 131 51 131s-54 26 -107 26c-178 0 -349 -164 -349 -357c0 -159 111 -267 273 -267c120 0 213 72 258 117c40 41 143 281 157 303
c23 36 91 147 221 218z" />
    <glyph glyph-name="Q" unicode="Q" horiz-adv-x="664" 
d="M640 497c0 -167 -202 -338 -342 -435c0 0 102 -38 161 -38c39 0 73 30 73 69c0 44 -24 49 -39 58l2 13c37 -18 48 -38 48 -71c0 -66 -53 -109 -137 -111c-92 -2 -158 39 -178 48c0 0 -75 -47 -152 -47c-32 0 -72 20 -72 55c0 42 52 76 119 76c63 0 99 -22 130 -27
c0 0 132 116 224 242c25 25 90 160 90 241c0 60 -47 99 -110 99c-81 0 -136 -41 -198 -141c-78 -126 -6 -183 27 -183c58 0 132 95 132 180c0 21 -10 48 -40 48c-50 0 -101 -60 -114 -153c-8 9 -8 17 -8 17s28 147 122 147c34 0 49 -32 49 -59c0 -88 -72 -190 -141 -190
c-57 0 -90 46 -90 106c0 109 141 236 261 236c92 0 183 -83 183 -180zM207 45c0 0 -90 35 -140 35c-23 0 -50 -17 -50 -42c0 -29 34 -48 59 -48c70 0 131 55 131 55z" />
    <glyph glyph-name="R" unicode="R" horiz-adv-x="1139" 
d="M1234 668l-2 -6c-45 20 -93 27 -135 27c-93 0 -154 -37 -154 -37c0 -5 106 -57 106 -156c0 -105 -89 -177 -242 -198c58 -58 67 -74 67 -130v-92c0 -53 37 -87 84 -87c52 0 94 42 94 90c0 22 -10 54 -36 99l8 6s40 -53 40 -105c0 -59 -48 -104 -127 -104
c-82 0 -152 55 -152 125c0 52 8 96 8 133c0 26 -14 48 -44 68c0 0 -46 -101 -61 -137c-45 -108 -224 -189 -386 -189c-172 0 -303 111 -303 287c0 192 168 364 353 364c54 0 108 -18 108 -18s72 101 268 101c125 0 195 -48 195 -48c3 0 64 37 174 37c54 0 81 -6 137 -30z
M976 511c0 102 -53 132 -53 132s-67 -33 -123 -165c-24 -57 -40 -129 -47 -161c112 -15 223 77 223 194zM605 334c0 0 21 64 -22 147c-26 49 -63 83 -122 112c-23 -35 -44 -70 -44 -126c0 -211 176 -138 188 -133zM907 652c0 0 -57 49 -179 49c-186 0 -259 -97 -259 -97
c44 -27 89 -51 124 -119c42 -81 26 -145 26 -145c14 11 35 36 38 56l5 -14c-4 -17 -24 -44 -45 -56c-31 -156 -146 -264 -287 -264c-108 0 -192 40 -247 182c0 0 -6 -8 14 -8c43 -99 107 -165 233 -165c137 0 242 104 275 251c-9 -4 -199 -80 -199 145c0 64 34 118 46 132
c0 0 -53 20 -100 20c-178 0 -344 -172 -344 -357c0 -154 101 -273 294 -273c123 0 223 63 281 184c19 41 67 158 109 252c68 152 215 227 215 227z" />
    <glyph glyph-name="S" unicode="S" horiz-adv-x="710" 
d="M696 616c0 -68 -120 -180 -122 -180c0 0 24 -148 24 -205c0 -132 -115 -242 -252 -242c-132 0 -223 107 -223 221c0 97 61 165 69 175c-19 27 -22 38 -29 62c-34 -18 -150 -94 -150 -275c0 -173 141 -321 317 -321c123 0 219 87 219 87v-8s-83 -90 -219 -90
c-186 0 -328 161 -328 332c0 195 127 266 159 287c-2 148 169 252 311 252c108 0 140 -53 140 -53s19 17 48 12c24 -4 36 -28 36 -54zM610 642c-18 -23 -39 -45 -39 -101c27 3 61 60 39 101zM669 624c0 21 -11 34 -26 34c-10 0 -21 -8 -24 -10c30 -51 -12 -112 -48 -120
l2 -75c60 55 96 115 96 171zM604 654c0 0 -37 49 -132 49c-105 0 -296 -83 -300 -241c0 0 60 48 180 63c95 12 179 13 198 13c0 43 26 102 54 116zM549 528c0 0 -123 -3 -192 -12c-128 -17 -168 -57 -184 -64c3 -12 12 -41 28 -59c0 0 54 48 132 48c55 0 81 -15 124 -60
c37 16 87 51 87 51zM445 375c0 0 -39 57 -112 57c-83 0 -125 -48 -125 -48s27 -41 122 -41c61 0 115 32 115 32zM543 369v48s-39 -29 -80 -47c0 0 20 -34 20 -85c0 -54 -68 -120 -137 -120c-42 0 -76 31 -76 70c0 38 28 69 63 69c18 0 28 -9 45 -37c-39 -3 -56 -15 -56 -36
c0 -24 18 -42 45 -42c53 0 102 54 102 112c0 32 -16 63 -16 63s-63 -31 -123 -31c-102 0 -132 43 -132 43s-68 -78 -65 -166c2 -48 41 -192 174 -192c156 0 236 223 236 351z" />
    <glyph glyph-name="T" unicode="T" horiz-adv-x="990" 
d="M1416 603c-7 -8 -10 -11 -13 -14c-5 -1 -74 -10 -84 -10c-104 0 -312 123 -460 123c-92 0 -135 -10 -167 -18c19 -23 108 -153 108 -270c0 -93 -62 -143 -73 -155c-11 -45 -44 -145 -143 -231l-8 6c49 54 102 103 132 212c-12 -4 -24 -6 -45 -6c-94 0 -166 85 -166 198
c0 73 51 144 51 144c-50 15 -77 24 -101 24c-192 0 -340 -155 -340 -347c0 -184 156 -341 340 -341c138 0 263 90 315 233c99 270 81 346 203 413c43 24 108 36 174 42l-2 -11c-121 -15 -183 -55 -201 -136c-19 -85 -26 -135 -51 -216c-70 -232 -245 -334 -438 -334
s-349 155 -349 350c0 194 139 359 349 359c33 0 76 -14 107 -24c0 0 62 86 106 106c0 0 -84 108 -250 108c-279 0 -391 -285 -399 -379l-9 1c9 138 141 388 408 388c177 0 266 -112 266 -112c84 39 123 47 183 47c195 0 321 -161 476 -161c18 0 44 3 81 11zM786 414
c0 118 -102 258 -109 265c-9 -6 -50 -24 -107 -92c118 -62 171 -138 159 -308c13 12 57 58 57 135zM712 263c20 178 -46 259 -148 313c-17 -19 -54 -89 -54 -135c0 -108 69 -189 153 -189c21 0 33 4 49 11z" />
    <glyph glyph-name="U" unicode="U" horiz-adv-x="865" 
d="M1543 423c0 -60 -71 -115 -151 -115c-218 0 -397 207 -397 207s-153 -114 -245 -270c-94 -159 -135 -247 -96 -247c60 0 111 70 111 70v-18s-46 -70 -126 -70c-39 0 -59 31 -59 99c-59 -72 -103 -99 -142 -99c-42 0 -82 50 -82 107c0 136 198 290 198 380
c0 103 -74 160 -182 160c-229 0 -358 -165 -358 -282c0 -84 73 -154 156 -154c51 0 117 13 163 39l3 -6c-42 -27 -97 -42 -166 -42c-92 0 -165 73 -165 163c0 122 127 291 367 291c131 0 231 -77 231 -227c0 -60 -25 -87 -65 -141c-55 -74 -137 -169 -137 -230
c0 -26 13 -47 37 -47c48 0 106 62 140 111c63 90 128 267 393 437c0 0 -130 97 -216 97h-54v6h46c108 0 155 -15 252 -91c134 51 164 64 279 64c162 0 265 -87 265 -192zM1533 423c0 103 -105 182 -255 182c-126 0 -261 -71 -261 -71s210 -216 375 -216c78 0 141 56 141 105
z" />
    <glyph glyph-name="V" unicode="V" horiz-adv-x="597" 
d="M1186 443c0 -145 -116 -273 -242 -273c-102 0 -181 80 -181 179c0 140 132 178 132 175v-7s-122 -32 -122 -168c0 -97 77 -168 171 -168c120 0 233 131 233 262c0 119 -92 191 -224 191c-158 0 -273 -127 -307 -183c-36 -59 -133 -234 -363 -476c-6 0 -11 0 -18 3
c42 98 51 104 54 171c3 68 -3 168 6 221c11 71 28 192 102 238c0 0 -128 55 -207 55c-108 0 -186 -73 -186 -173c0 -67 57 -104 64 -119c-56 14 -96 64 -96 126c0 101 92 174 218 174c93 0 208 -57 216 -54c0 0 28 26 54 26c7 0 16 -6 16 -14c0 -22 -37 -30 -66 -24
c-30 -22 -42 -59 -42 -101c0 -60 24 -173 24 -224c0 -57 -31 -131 -108 -252c143 145 239 301 319 429c33 53 112 204 319 204c132 0 234 -90 234 -218zM493 626c0 4 -4 6 -10 6c-10 0 -26 -10 -35 -19c21 -7 45 3 45 13z" />
    <glyph glyph-name="W" unicode="W" horiz-adv-x="897" 
d="M1500 435c0 -142 -114 -268 -234 -268c-116 0 -199 84 -199 186c0 130 139 175 139 175l3 -9s-130 -46 -130 -166c0 -89 63 -174 187 -174c113 0 221 128 221 256c0 119 -87 200 -207 200c-188 0 -272 -105 -378 -267c-55 -83 -287 -391 -323 -391c-6 0 -9 3 -9 6
c0 8 3 19 32 77c31 69 27 178 27 347c-21 -30 -83 -135 -144 -213c-74 -92 -193 -218 -213 -218c-5 0 -11 6 -11 11c0 0 45 82 52 124c3 18 14 158 14 272c0 108 75 183 110 228c0 0 -111 60 -203 60c-133 0 -201 -83 -201 -179c0 -43 12 -67 63 -105c-3 2 3 -7 0 -6
c0 0 -93 30 -93 120c0 107 93 176 231 176c93 0 206 -60 209 -59c0 0 24 24 43 24c11 0 24 -4 24 -13c0 -19 -42 -27 -61 -23c0 0 -50 -50 -50 -79c0 -105 24 -158 24 -246c0 -62 -64 -173 -117 -258c39 37 117 109 177 189c68 88 131 196 195 321c18 33 66 75 66 75
c-31 -53 -39 -78 -39 -120c0 -72 22 -136 22 -207c0 -66 -23 -114 -101 -245c0 0 88 98 139 164c38 48 113 150 186 277c47 80 182 182 308 182c139 0 241 -93 241 -224zM497 627c0 6 -5 8 -11 7c-10 -1 -23 -9 -30 -19c14 -2 41 -1 41 12z" />
    <glyph glyph-name="X" unicode="X" horiz-adv-x="734" 
d="M950 648c0 0 -29 -6 -43 -12c-102 -41 -122 -91 -306 -310c-1 -31 -42 -182 -42 -257c0 -45 13 -87 52 -87c15 0 35 5 56 15c-2 -3 4 -6 3 -9c0 0 -30 -15 -59 -15c-134 0 -119 126 -133 215c-175 -173 -249 -220 -338 -220c-78 0 -137 58 -137 131c0 97 75 209 205 252
c40 130 143 214 259 264c-11 10 -30 22 -51 22c-72 0 -115 -37 -183 -109l-5 6c62 70 109 111 189 111c25 0 51 -16 61 -25c9 1 22 4 41 -1c60 -17 86 -80 100 -188c0 0 153 162 255 204c19 8 66 21 67 19zM483 555c0 22 -5 38 -10 51c-95 -36 -213 -122 -255 -253
c49 6 97 -2 123 -48c106 80 142 191 142 250zM332 299c-22 40 -63 50 -116 44c-6 -32 5 -70 46 -70c34 0 56 17 70 26zM524 512c0 37 -16 70 -40 95c8 -26 8 -31 8 -51c0 -92 -55 -200 -146 -260c31 -81 -102 -237 -197 -237c-31 0 -62 29 -62 62c0 21 17 67 56 104l6 -4
c-37 -42 -53 -68 -53 -100c0 -31 25 -53 53 -53c74 0 210 137 188 222c-29 -20 -57 -27 -75 -27c-36 0 -64 32 -55 77c-127 -43 -195 -154 -195 -241c0 -67 59 -117 128 -117c114 0 218 151 365 327c0 0 19 189 19 203z" />
    <glyph glyph-name="Y" unicode="Y" horiz-adv-x="1049" 
d="M1611 -96c0 -179 -147 -317 -331 -317c-152 0 -327 77 -507 248c-73 -146 -198 -253 -376 -253c-188 0 -314 108 -314 231c0 126 128 236 314 236c194 0 313 -142 368 -189c5 7 14 19 21 38c14 30 27 92 48 202c-79 -95 -105 -113 -142 -113c-54 0 -89 50 -89 126
c0 150 155 249 155 369c0 103 -78 149 -150 149c-51 0 -96 -9 -164 -41c0 0 5 -36 -7 -85c-8 -30 -17 -51 -33 -77l-8 2s24 46 32 76c10 47 7 80 7 80c-176 -104 -224 -104 -266 -104c-87 0 -167 59 -167 129c0 78 61 134 234 134c153 0 188 -83 207 -144
c55 21 79 37 165 37c114 0 205 -93 205 -205c0 -119 -97 -204 -143 -308c0 0 -37 -127 32 -127c92 0 155 219 227 336c99 160 240 327 438 327c208 0 189 -134 189 -134c-5 3 -8 6 -11 6c-13 95 -92 120 -160 120c-162 0 -362 -213 -483 -517c-54 -141 -94 -224 -103 -247
c-7 -17 -14 -32 -21 -44c10 -11 229 -247 502 -247c171 0 319 128 319 306c0 137 -115 246 -232 246c-101 0 -165 -61 -165 -140c0 -123 137 -132 137 -132c0 -5 -3 -11 -10 -11c-78 0 -141 58 -141 143c0 92 77 156 179 156c133 0 244 -118 244 -262zM433 597
c-21 81 -68 142 -197 142c-119 0 -227 -29 -227 -128c0 -70 77 -120 160 -120c68 0 149 40 264 106zM759 -150c-65 64 -180 189 -362 189c-177 0 -295 -100 -295 -226c0 -101 142 -184 295 -184c248 0 349 197 362 221z" />
    <glyph glyph-name="Z" unicode="Z" horiz-adv-x="676" 
d="M707 499c0 -142 -125 -272 -366 -441c0 0 41 -15 57 -54c6 -13 14 -41 15 -68l69 -16l-1 -9l-67 13c-25 -169 -216 -289 -337 -289c-79 0 -147 30 -147 97c0 112 182 213 326 213c28 0 78 2 96 2c5 14 10 24 10 41c0 30 -21 60 -36 60c0 0 -118 -62 -153 -62
c-32 0 -39 14 -39 28c0 26 21 32 38 38c49 17 130 18 130 18c81 81 305 293 305 465c0 70 -45 116 -108 116c-30 0 -96 -21 -128 -42c0 0 72 -35 72 -116c0 -144 -109 -334 -235 -334c-63 0 -116 55 -116 124c0 173 254 320 254 323c0 0 -39 7 -123 -21
c-90 -30 -170 -116 -212 -237c-9 9 -6 -6 -7 4c60 170 181 230 213 240c90 29 116 26 139 22c41 22 94 48 164 47c105 -2 187 -73 187 -162zM434 493c0 84 -76 110 -76 110s-257 -160 -257 -320c0 -60 50 -115 107 -115c114 0 226 180 226 325zM278 52c0 2 -49 1 -75 -4
c-24 -5 -51 -10 -51 -35c0 -10 10 -15 19 -15c30 0 107 54 107 54zM348 -65c-34 2 -53 2 -77 2c-196 0 -334 -124 -334 -205c0 -27 21 -48 53 -48c129 0 326 110 358 251z" />
    <glyph glyph-name="bracketleft" unicode="[" horiz-adv-x="300" 
d="M702 930l-12 -22h-110l-563 -1007h110l-12 -22h-198l587 1051h198z" />
    <glyph glyph-name="backslash" unicode="\" horiz-adv-x="379" 
d="M347 -29l-32 1l-251 678l31 -1z" />
    <glyph glyph-name="bracketright" unicode="]" horiz-adv-x="300" 
d="M601 930l-587 -1051h-198l12 22h110l563 1007h-110l12 22h198z" />
    <glyph glyph-name="asciicircum" unicode="^" horiz-adv-x="418" 
d="M410 202h1l-10 -5c-42 28 -77 53 -111 78c-36 -22 -137 -61 -179 -84l-8 8c47 38 131 85 173 117c9 8 18 9 26 1c39 -42 78 -85 108 -115z" />
    <glyph glyph-name="underscore" unicode="_" horiz-adv-x="500" 
d="M507 -125h-513v50h513v-50z" />
    <glyph glyph-name="grave" unicode="`" horiz-adv-x="300" 
d="M222 365h-26l-100 75c-10 9 -21 21 -21 40c0 18 14 42 43 42c12 0 29 -9 40 -23z" />
    <glyph glyph-name="a" unicode="a" horiz-adv-x="426" 
d="M449 218c-106 -130 -213 -233 -263 -233c-44 0 -60 24 -76 59c-35 -47 -65 -59 -95 -59c-39 0 -68 33 -68 99c0 90 93 216 224 216c21 0 36 -3 51 -24c0 0 11 15 21 15c12 0 30 -6 42 -6c8 0 22 23 33 27l-131 -246c-14 -26 -17 -35 -17 -46c0 -10 7 -20 22 -20
c37 0 162 120 249 225zM207 258c0 11 -7 24 -21 24c-87 0 -180 -193 -180 -249c0 -21 3 -33 20 -33c37 0 63 39 79 66c41 70 102 176 102 192z" />
    <glyph glyph-name="b" unicode="b" horiz-adv-x="399" 
d="M422 218c-56 -74 -128 -95 -186 -96c-33 -56 -133 -137 -204 -137c-40 0 -67 32 -67 77c0 116 87 269 143 345c83 113 183 229 254 229c18 0 31 -21 31 -42c0 -142 -217 -290 -258 -306c-28 -63 -120 -207 -120 -258c0 -18 12 -31 32 -32c39 -1 107 99 124 134
c-9 5 -36 25 -36 76c0 46 21 92 56 92c46 0 75 -22 75 -75c0 -32 -14 -76 -24 -91c36 1 114 16 172 91zM351 584c1 19 -3 31 -11 31c-21 0 -86 -90 -131 -171c-31 -55 -36 -67 -68 -139c128 68 208 245 210 279zM204 248c0 24 -5 36 -19 36c-23 0 -36 -39 -36 -76
c0 -27 8 -49 28 -64c9 25 27 55 27 104z" />
    <glyph glyph-name="c" unicode="c" horiz-adv-x="388" 
d="M411 218c-114 -160 -252 -233 -363 -233c-70 0 -101 35 -101 90c0 150 129 225 226 225c34 0 60 -24 60 -52c0 -30 -29 -59 -60 -59c-24 0 -36 11 -36 26c0 7 1 21 10 34c11 -9 21 -13 29 -13c7 0 31 16 31 33c0 12 -9 21 -34 21c-64 0 -170 -186 -170 -255
c0 -23 20 -38 45 -38c86 0 229 56 355 228z" />
    <glyph glyph-name="d" unicode="d" horiz-adv-x="432" 
d="M587 594c0 -106 -202 -294 -297 -339c0 0 -113 -206 -113 -231c0 -15 8 -26 21 -26c42 0 126 89 249 227l8 -7c-135 -152 -209 -236 -261 -236c-44 0 -62 21 -80 69c-42 -51 -51 -66 -91 -66c-43 0 -74 47 -74 92c0 130 117 223 236 223c22 0 34 -10 51 -27
c108 183 240 356 322 356c15 0 29 -14 29 -35zM545 587c0 12 -8 22 -18 22c-40 0 -181 -254 -220 -323c143 86 238 241 238 301zM215 260c0 13 -17 27 -30 27c-58 0 -180 -186 -180 -254c0 -16 6 -35 22 -35c40 0 65 52 105 108c54 75 83 129 83 154z" />
    <glyph glyph-name="e" unicode="e" horiz-adv-x="307" 
d="M330 218c-30 -50 -183 -233 -295 -233c-56 0 -88 44 -88 90c0 139 154 225 229 225c31 0 57 -24 57 -55c0 -98 -173 -137 -207 -137c-11 -24 -18 -36 -18 -70c0 -21 7 -37 27 -37c100 0 251 164 287 224zM183 264c0 15 -7 23 -21 23c-29 0 -75 -54 -126 -155
c56 0 147 95 147 132z" />
    <glyph glyph-name="f" unicode="f" horiz-adv-x="237" 
d="M371 566c0 -76 -99 -224 -249 -302h55l-10 -18h-71c-177 -334 -276 -594 -446 -594c-57 0 -99 39 -99 90c0 52 45 105 95 105c25 0 49 -24 49 -51c0 -26 -25 -47 -55 -47c-12 0 -21 5 -33 26c21 3 31 9 31 16c0 14 -9 26 -21 26c-18 0 -52 -42 -52 -84
c0 -39 40 -70 85 -70c128 0 191 262 368 583h-60l10 18h61c49 84 208 339 303 339c19 0 39 -19 39 -37zM332 558c0 18 -6 29 -17 29c-36 0 -177 -252 -208 -323c172 127 225 247 225 294z" />
    <glyph glyph-name="g" unicode="g" horiz-adv-x="346" 
d="M369 218c-72 -129 -177 -205 -259 -257c-40 -90 -85 -281 -209 -281c-50 0 -89 33 -89 75c0 50 64 134 233 193l30 79c-27 -33 -39 -42 -60 -42c-45 0 -72 33 -72 98c0 114 126 217 213 217c20 0 26 -4 39 -18c0 0 12 9 21 9c28 0 28 -9 38 -9c6 0 18 18 36 30
c0 0 -62 -95 -96 -160s-80 -173 -80 -173c90 58 178 132 247 246zM179 266c0 10 -8 19 -18 19c-60 0 -159 -194 -159 -258c0 -16 1 -25 18 -25c51 0 159 229 159 264zM40 -68c-80 -23 -213 -108 -213 -174c0 -24 20 -39 42 -39c68 0 140 123 171 213z" />
    <glyph glyph-name="h" unicode="h" horiz-adv-x="342" 
d="M390 608c0 -146 -240 -314 -289 -339l-20 -44c53 50 104 75 129 75c24 0 41 -18 41 -42c0 -58 -131 -216 -131 -232c0 -9 5 -18 14 -18c47 0 160 143 223 217l8 -7c-80 -99 -180 -233 -248 -233c-31 0 -55 20 -55 48c0 47 129 199 129 230c0 4 -3 10 -8 10
c-33 0 -84 -45 -106 -80c-77 -134 -102 -200 -123 -200c-15 0 -26 8 -36 8c-12 0 -19 -16 -38 -27c49 97 144 284 267 463c65 93 153 201 207 201c18 0 36 -11 36 -30zM345 593c0 13 -4 25 -10 25c-39 0 -128 -160 -222 -322c148 98 232 235 232 297z" />
    <glyph glyph-name="i" unicode="i" horiz-adv-x="235" 
d="M198 416c0 -29 -24 -57 -49 -57c-21 0 -38 18 -38 39c0 28 24 52 51 52c21 0 36 -16 36 -34zM258 218c-79 -94 -200 -233 -264 -233c-35 0 -62 21 -62 60c0 68 65 161 100 225c7 13 9 21 27 21c30 0 20 -9 34 -9c8 0 26 27 38 30l-127 -242c-8 -15 -10 -31 -10 -38
c0 -14 8 -26 24 -26c38 0 208 190 232 219z" />
    <glyph glyph-name="j" unicode="j" horiz-adv-x="198" 
d="M188 413c0 -29 -24 -56 -53 -56c-21 0 -37 17 -37 38c0 28 27 55 55 55c21 0 35 -13 35 -37zM221 218c-89 -98 -205 -221 -275 -268c-41 -71 -73 -280 -210 -280c-51 0 -90 31 -90 73c0 68 108 163 230 191c50 145 94 231 148 323c11 19 22 35 37 35c12 0 18 -9 32 -9
c10 0 24 26 38 29l-182 -347c72 54 264 260 264 260zM-131 -86c-92 -8 -210 -110 -210 -168c0 -21 18 -37 42 -37c84 0 163 190 168 205z" />
    <glyph glyph-name="k" unicode="k" horiz-adv-x="339" 
d="M411 605c0 -105 -206 -290 -286 -326c-9 -12 -32 -49 -32 -49c48 40 99 70 131 70c24 0 40 -15 40 -39c0 -37 -34 -73 -105 -111c12 -18 18 -26 18 -39c0 -25 -42 -79 -42 -94c0 -6 5 -8 11 -8c39 0 208 216 208 216l8 -7c-48 -61 -172 -233 -243 -233
c-23 0 -44 16 -44 39c0 25 39 87 39 108c0 12 -31 6 -67 9c-64 -102 -65 -148 -99 -148c-11 0 -23 8 -32 8s-23 -22 -38 -28l124 234c23 45 268 429 368 429c18 0 41 -13 41 -31zM363 597c0 12 -2 21 -11 21c-32 0 -190 -239 -214 -315c109 61 223 232 225 294zM198 245
c0 16 -10 19 -21 19c-30 0 -103 -69 -123 -108c19 -1 43 -2 66 6c31 11 78 44 78 83z" />
    <glyph glyph-name="l" unicode="l" horiz-adv-x="234" 
d="M393 624c-1 -59 -88 -251 -290 -369c-23 -51 -79 -155 -79 -225c0 -12 9 -24 21 -24c54 0 145 105 204 219l8 -7c-76 -137 -145 -227 -239 -233c-36 -2 -60 32 -60 84c0 168 314 591 404 591c16 0 31 -18 31 -36zM350 618c0 11 -6 21 -14 21c-33 0 -167 -232 -212 -351
c125 73 226 280 226 330z" />
    <glyph glyph-name="m" unicode="m" horiz-adv-x="532" 
d="M555 218l-122 -136c-50 -56 -83 -97 -130 -97c-33 0 -60 27 -60 63c0 35 120 181 120 210c0 11 -7 17 -18 17c-18 0 -77 -63 -117 -111c-9 -11 -69 -131 -84 -155c-7 -11 -19 -15 -27 -15c-12 0 -24 9 -33 9c-8 0 -36 -30 -36 -30s149 275 149 288c0 8 -3 14 -11 14
c-27 0 -74 -50 -114 -92c-55 -58 -97 -189 -122 -189c-19 0 -33 9 -42 9c-7 0 -36 -30 -36 -30l140 263c21 40 27 55 44 55s30 -6 39 -6c8 0 24 25 36 27l-51 -96c70 72 111 84 142 84c50 0 45 -69 45 -69c57 53 72 69 119 69c25 0 46 -24 46 -49c0 -4 -6 -17 -17 -35
l-97 -157c-7 -11 -15 -22 -15 -33c0 -14 11 -24 20 -24c11 0 59 40 103 88l121 135z" />
    <glyph glyph-name="n" unicode="n" horiz-adv-x="385" 
d="M408 218c-22 -26 -154 -173 -154 -173c-29 -33 -58 -61 -101 -61c-38 0 -55 27 -58 61c-1 15 -1 28 21 61l83 127c9 14 14 25 14 30c0 6 -4 9 -15 9c-28 0 -101 -50 -174 -173c-32 -53 -49 -105 -72 -105c-13 0 -26 9 -37 9c-9 0 -37 -30 -37 -30l154 294
c8 15 14 24 30 24c18 0 21 -8 35 -8c9 0 21 22 37 29l-51 -96c66 58 106 84 150 84c28 0 46 -18 46 -46c0 -18 -5 -32 -19 -54l-93 -145c-10 -15 -18 -28 -18 -34c0 -12 6 -18 21 -18c19 0 50 24 83 60l147 162z" />
    <glyph glyph-name="o" unicode="o" horiz-adv-x="369" 
d="M392 218c-24 -29 -71 -63 -123 -92c-18 -7 -30 -12 -45 -15c-24 -40 -104 -126 -198 -126c-47 0 -77 48 -77 93c0 114 116 222 227 222c46 0 81 -40 81 -94c0 -35 -17 -62 -24 -80c10 2 19 6 30 11c54 25 95 63 121 88zM197 263c0 16 -8 25 -24 25
c-60 0 -166 -187 -166 -256c0 -23 5 -34 19 -34c37 0 72 34 124 121c-40 13 -55 30 -55 49c0 21 15 32 31 32c12 0 21 -6 21 -21c0 -18 -27 -20 -27 -20c5 -15 27 -28 38 -30c31 66 39 99 39 134z" />
    <glyph glyph-name="p" unicode="p" horiz-adv-x="372" 
d="M395 218c-78 -132 -189 -250 -279 -250c-17 0 -32 8 -45 23c-20 -14 -47 -26 -71 -26c-25 0 -39 20 -44 46c-100 -184 -139 -350 -175 -350c-20 0 -50 13 -50 13l-42 -37c161 282 201 384 341 632c3 4 9 22 29 22c13 0 24 -8 34 -8c11 0 24 25 38 29l-17 -31
c14 13 35 19 50 19c37 0 66 -37 66 -82c0 -98 -98 -182 -147 -218c9 -11 22 -20 33 -20c79 0 191 113 271 245zM170 258c0 15 -9 21 -20 21c-67 0 -162 -207 -169 -224c10 4 13 3 26 3c16 0 49 -26 49 -26c50 63 114 180 114 226zM45 21c-15 14 -28 24 -48 24
c-11 0 -26 -1 -26 -12c0 -16 9 -41 27 -41c22 0 28 10 47 29z" />
    <glyph glyph-name="q" unicode="q" horiz-adv-x="370" 
d="M393 218c-88 -140 -164 -198 -264 -224c14 -23 35 -83 35 -107c0 -94 -74 -231 -155 -231c-42 0 -66 35 -66 87s27 106 149 280c-39 -31 -53 -38 -80 -38c-47 0 -62 50 -62 105c0 113 130 210 221 210c18 0 24 -4 42 -18c8 8 14 9 24 9c14 0 20 -7 34 -7
c10 0 26 26 37 28l-176 -304c74 24 146 58 253 217zM197 264c0 11 -8 15 -18 15c-60 0 -167 -183 -167 -244c0 -17 11 -27 26 -27c31 0 52 36 103 129c47 85 56 98 56 127zM149 -113c0 26 -9 53 -32 98c-94 -156 -97 -168 -97 -245c0 -24 13 -42 34 -42c38 0 95 110 95 189z
" />
    <glyph glyph-name="r" unicode="r" horiz-adv-x="294" 
d="M317 218c-131 -198 -200 -233 -269 -233c-33 0 -53 27 -54 74c-1 44 84 146 84 174c0 6 0 7 -4 7c-21 0 -27 -31 -63 -31c-16 0 -25 16 -25 38c0 33 31 76 58 76c12 0 24 -9 24 -23c0 -18 -15 -46 -35 -69c51 42 80 69 105 69c21 0 35 -19 35 -39c0 -21 -11 -32 -21 -49
l-79 -135c-12 -20 -19 -35 -19 -41c0 -19 12 -27 26 -27c68 0 156 111 229 216zM53 299c0 4 -2 9 -9 9c-20 0 -41 -43 -41 -61c0 -13 5 -17 11 -17c19 24 39 55 39 69z" />
    <glyph glyph-name="s" unicode="s" horiz-adv-x="247" 
d="M270 218c-93 -155 -156 -171 -217 -180c-23 -27 -62 -55 -112 -55c-52 0 -79 28 -79 71c0 29 19 56 48 56c28 0 50 -36 71 -44c27 19 38 66 38 88c0 23 -19 57 -19 97c0 42 16 96 53 96c15 0 25 -6 25 -18c0 -30 -18 -54 -31 -77c0 0 30 -66 30 -109
c0 -35 -11 -80 -18 -91c67 15 117 32 203 173zM66 327c0 5 -3 12 -12 11c-7 0 -18 -19 -19 -42c0 -10 1 -22 6 -32c21 30 25 45 25 63zM-29 56c-24 11 -37 36 -54 36c-10 0 -18 -9 -18 -20c0 -18 15 -25 32 -28c16 -3 34 1 40 12z" />
    <glyph glyph-name="t" unicode="t" horiz-adv-x="235" 
d="M258 218c-34 -54 -94 -126 -94 -126c-59 -80 -127 -107 -176 -107c-29 0 -53 30 -53 66c0 28 8 43 21 69l79 159h-74l16 15h81c59 38 82 62 158 177h11l-101 -177h75l-6 -15h-75l-104 -182c-12 -21 -23 -38 -23 -53c0 -13 13 -38 27 -38c40 0 105 56 134 94
c0 0 67 85 96 125z" />
    <glyph glyph-name="u" unicode="u" horiz-adv-x="415" 
d="M438 218c-40 -60 -169 -233 -277 -233c-32 0 -54 26 -59 84c-52 -59 -69 -84 -123 -84c-41 0 -51 34 -51 50c0 28 5 56 33 106l75 136c8 14 17 14 27 14c8 0 20 -7 33 -7c9 0 25 25 36 28l-119 -224c-14 -26 -18 -49 -18 -56c0 -14 7 -26 26 -26c14 0 77 62 117 133
l78 139c5 9 12 13 23 13c15 0 21 -7 36 -7c9 0 23 23 36 28l-127 -239c-12 -22 -16 -31 -16 -44c0 -12 8 -20 26 -20c45 0 149 95 236 216z" />
    <glyph glyph-name="v" unicode="v" horiz-adv-x="376" 
d="M399 218c-36 -35 -105 -87 -180 -90c-20 -50 -119 -143 -230 -143c-31 0 -55 30 -55 57c0 32 13 75 29 104l72 131c7 13 17 14 22 14c17 0 26 -8 37 -8c8 0 18 22 35 28l-119 -228c-12 -23 -15 -38 -15 -45c0 -24 14 -38 32 -38c42 0 85 46 130 141c-27 31 -32 55 -32 73
c0 54 43 94 73 94c29 0 57 -39 57 -77c0 -36 -18 -76 -28 -90c37 0 99 27 164 84zM207 240c0 20 -4 45 -24 45c-25 0 -46 -40 -46 -72c0 -25 13 -42 28 -60c0 0 42 71 42 87z" />
    <glyph glyph-name="w" unicode="w" horiz-adv-x="552" 
d="M575 218c-33 -60 -126 -90 -173 -99c-49 -74 -152 -134 -223 -134c-35 0 -47 12 -59 36c-9 18 2 56 2 56c-53 -60 -87 -92 -140 -92c-27 0 -53 24 -53 66c0 34 9 47 23 73l80 147c8 14 18 20 25 20c15 0 25 -7 39 -7c10 0 24 25 36 28l-126 -238c-10 -19 -14 -35 -14 -42
c0 -15 8 -26 16 -26c40 0 100 67 134 130l76 141c5 9 13 14 22 14c13 0 24 -7 37 -7c11 0 23 23 37 28l-119 -225c-13 -24 -19 -45 -19 -55c0 -21 10 -32 28 -32c45 0 87 42 135 135c-27 26 -33 51 -33 78c0 53 32 95 77 95c30 0 58 -39 58 -78c0 -54 -19 -78 -31 -96
c39 4 139 48 157 91zM381 266c0 13 -6 21 -19 21c-26 0 -42 -35 -42 -74c0 0 -5 -40 24 -64c18 22 37 79 37 117z" />
    <glyph glyph-name="x" unicode="x" horiz-adv-x="388" 
d="M411 218c-129 -166 -233 -233 -304 -233c-39 0 -66 29 -90 99c-65 -73 -95 -99 -127 -99c-21 0 -36 15 -36 35c0 10 5 21 24 36c18 -21 29 -29 44 -29c31 0 82 68 90 81c-1 26 -8 125 -8 146c0 26 1 43 23 43h35c8 0 11 27 19 32l2 -131c58 50 117 102 163 102
c21 0 39 -13 39 -27c0 -10 -6 -22 -16 -39c-23 18 -36 24 -53 24c-50 0 -129 -70 -133 -79c0 -99 14 -168 55 -168c75 0 214 145 265 214z" />
    <glyph glyph-name="y" unicode="y" horiz-adv-x="382" 
d="M405 218l-132 -126c-58 -54 -83 -87 -163 -131c-54 -93 -108 -260 -229 -260c-45 0 -81 32 -81 77c0 89 127 137 239 172l42 85c-42 -32 -76 -50 -99 -50c-32 0 -53 26 -53 68c0 10 5 40 17 62l82 152c6 12 19 24 28 24c20 0 25 -8 39 -8c9 0 24 25 36 29l-122 -228
c-16 -30 -17 -35 -17 -49c0 -15 4 -28 15 -28c12 0 75 24 102 72l105 188c6 11 13 24 28 24c21 0 21 -8 36 -8c8 0 25 25 37 29c-19 -34 -92 -192 -196 -336c70 43 97 80 146 125l132 124zM36 -60c-109 -37 -228 -81 -228 -161c0 -25 18 -42 42 -42c47 0 82 34 186 203z" />
    <glyph glyph-name="z" unicode="z" horiz-adv-x="312" 
d="M335 218c-29 -45 -128 -191 -275 -262c5 -20 5 -45 5 -65c0 -115 -109 -236 -247 -236c-49 0 -81 28 -81 75c0 92 134 179 274 217c0 9 4 30 -6 56c-21 -8 -41 -14 -56 -14c-25 0 -36 9 -36 25c0 13 17 27 40 27c25 0 40 -4 65 -18c24 20 89 117 89 187
c0 20 -12 35 -36 35c-11 0 -42 -18 -71 -59v17c23 45 62 97 116 97c39 0 67 -34 67 -73c0 -114 -117 -202 -156 -215c6 -7 24 -34 27 -46c88 43 170 114 273 259zM-2 13c-13 10 -30 19 -45 19c-15 1 -27 -9 -27 -18c0 -11 12 -16 23 -16c17 -1 38 10 49 15zM11 -65
c-81 -20 -248 -129 -248 -228c0 -24 24 -42 48 -42c80 0 200 173 200 270z" />
    <glyph glyph-name="braceleft" unicode="{" horiz-adv-x="400" 
d="M513 680c-42 -3 -96 -47 -115 -102l-76 -216c-19 -55 -65 -94 -111 -104l-3 -8c36 -4 57 -43 42 -86l-66 -192c-24 -69 -37 -125 25 -144c-118 0 -121 48 -82 158l64 180c13 36 6 74 -27 90c41 10 82 54 100 106l61 178c29 85 68 140 188 140z" />
    <glyph glyph-name="bar" unicode="|" horiz-adv-x="260" 
d="M183 -80h-55v840h55v-840z" />
    <glyph glyph-name="braceright" unicode="}" horiz-adv-x="400" 
d="M358 526l-64 -180c-13 -36 -6 -74 27 -90c-41 -10 -82 -54 -100 -106l-61 -178c-29 -85 -68 -140 -188 -140c42 3 96 47 115 102l76 216c19 55 65 94 111 104l3 8c-36 4 -57 43 -42 86l66 192c24 69 37 122 -25 141c118 0 121 -45 82 -155z" />
    <glyph glyph-name="asciitilde" unicode="~" horiz-adv-x="440" 
d="M447 237c-22 -50 -69 -66 -123 -66c-56 0 -90 14 -147 14c-44 0 -68 -5 -111 -15c26 43 77 64 134 64c59 0 93 -18 153 -18c36 0 59 9 94 21z" />
    <glyph glyph-name="nbspace" unicode="&#xa0;" horiz-adv-x="50" 
 />
    <glyph glyph-name="exclamdown" unicode="&#xa1;" horiz-adv-x="328" 
d="M-3 -152c0 39 38 105 170 293l108 168h11s-20 -38 -30 -61l-146 -344c-22 -54 -58 -95 -87 -95c-16 0 -26 16 -26 39zM311 439c0 30 28 60 58 60c25 0 42 -21 42 -50c0 -30 -28 -60 -58 -60c-25 0 -42 21 -42 50z" />
    <glyph glyph-name="cent" unicode="&#xa2;" horiz-adv-x="355" 
d="M315 409c0 -42 -32 -74 -72 -74c-30 0 -48 15 -48 40c0 31 17 51 44 51c6 0 12 -3 21 -11c-12 -8 -17 -14 -17 -20c0 -10 6 -19 14 -19c15 0 37 20 37 42c0 20 -17 33 -42 33c-39 0 -78 -31 -128 -102c-31 -43 -53 -83 -53 -142c0 -26 18 -51 43 -51c26 0 46 10 86 44
l9 -13c-51 -45 -77 -57 -132 -54l-49 -92l-16 7l48 90c-37 12 -56 48 -56 83c0 27 13 81 28 113c40 85 109 151 214 151l36 67l16 -5l-36 -67c42 -13 53 -44 53 -71z" />
    <glyph glyph-name="sterling" unicode="&#xa3;" horiz-adv-x="690" 
d="M673 521c0 -56 -36 -111 -93 -111c-38 0 -74 34 -74 70c0 28 26 51 54 51c16 0 30 -7 40 -20c-10 -2 -33 -17 -33 -31c0 -18 16 -31 29 -31c28 0 59 40 59 76c0 35 -26 72 -62 72c-119 0 -156 -194 -211 -317c27 -6 53 -14 79 -14c18 0 39 3 50 6l6 -8
c-11 -11 -43 -22 -71 -22c-29 0 -53 6 -77 11c-36 -73 -78 -141 -132 -189c32 -8 55 -14 92 -14c89 0 166 61 201 116l15 -4c-18 -56 -93 -168 -175 -168c-60 0 -114 23 -162 46c-39 -27 -84 -42 -136 -42c-33 0 -67 12 -67 45c0 37 44 50 80 50c38 0 70 -12 111 -22
c39 49 67 118 88 186c-36 -4 -64 -19 -102 -36c-4 9 -1 32 1 45c42 16 70 22 111 23c48 157 156 337 288 337c53 0 91 -49 91 -105zM180 53c-31 14 -60 25 -88 25c-21 0 -48 -8 -48 -30s21 -35 43 -35c36 0 67 15 93 40z" />
    <glyph glyph-name="dieresis" unicode="&#xa8;" horiz-adv-x="281" 
d="M92 757c15 0 28 -14 24 -30c-3 -15 -21 -29 -36 -29c-18 0 -27 14 -24 29c3 16 20 30 36 30zM217 757c16 0 28 -14 24 -30c-3 -15 -20 -29 -36 -29c-17 0 -27 14 -24 29c3 16 20 30 36 30z" />
    <glyph glyph-name="guillemotleft" unicode="&#xab;" horiz-adv-x="273" 
d="M244 71l-91 112l157 100l-8 -23l-122 -77l73 -89zM145 71l-91 112l157 100l-8 -23l-122 -77l73 -89z" />
    <glyph glyph-name="degree" unicode="&#xb0;" horiz-adv-x="459" 
d="M274 537c0 -73 -79 -183 -168 -183c-42 0 -64 30 -64 70c0 75 103 171 171 171c41 0 61 -22 61 -58zM249 527c0 22 0 41 -26 41c-56 0 -120 -118 -120 -165c0 -15 6 -24 20 -24c30 0 126 75 126 148z" />
    <glyph glyph-name="uni00B2" unicode="&#xb2;" horiz-adv-x="407" 
d="M381 582c0 -105 -163 -140 -220 -168c-32 -16 -78 -51 -78 -62c11 0 37 7 62 8c32 1 58 -11 82 -11c17 0 32 8 63 33c8 -26 -45 -81 -93 -81c-34 0 -57 12 -83 12c-67 0 -64 -10 -72 -10c-1 0 -3 2 -4 4v2c0 13 43 55 60 70c43 37 144 82 162 99c40 37 74 88 74 121
c0 27 -25 49 -55 49c-36 0 -73 -32 -73 -66c0 -16 11 -29 24 -29c7 0 16 7 16 14c0 8 -4 13 -5 19c29 7 34 -18 34 -27c0 -19 -16 -34 -38 -34c-25 0 -43 19 -43 46c0 45 54 89 110 89c47 0 77 -29 77 -78z" />
    <glyph glyph-name="uni00B3" unicode="&#xb3;" horiz-adv-x="403" 
d="M368 660l-183 -130c28 -3 70 -26 70 -82c0 -71 -76 -138 -156 -138c-44 0 -78 34 -78 75c0 34 27 66 57 66c21 0 40 -20 40 -40c0 -19 -14 -34 -33 -34c-7 0 -17 6 -22 17c14 4 21 8 21 14c0 11 -6 19 -18 19c-22 0 -38 -19 -38 -44c0 -29 21 -50 57 -50
c68 0 123 91 123 138c0 21 -19 36 -42 36c-18 0 -33 -15 -37 -15c-3 0 -9 2 -9 4l158 110c-17 5 -45 15 -74 14s-55 -15 -72 -21c0 0 33 61 93 61c26 0 52 -14 93 -14c14 0 27 3 50 14z" />
    <glyph glyph-name="acute" unicode="&#xb4;" horiz-adv-x="0" 
d="M56 788c0 -34 -98 -45 -183 -89v7c82 43 130 93 168 93c7 0 15 -4 15 -11z" />
    <glyph glyph-name="periodcentered" unicode="&#xb7;" horiz-adv-x="500" 
d="M625 726c0 -22 -26 -44 -53 -44c-23 0 -39 15 -39 37s26 44 53 44c23 0 39 -15 39 -37z" />
    <glyph glyph-name="cedilla" unicode="&#xb8;" horiz-adv-x="183" 
d="M144 -70c0 -26 -30 -46 -58 -46c-24 0 -37 4 -60 16c-13 7 -2 17 9 11c9 -5 71 -18 71 17c0 18 -31 14 -50 12l8 26c9 4 19 6 29 6l17 32h20l-22 -34c20 -4 36 -18 36 -40z" />
    <glyph glyph-name="uni00B9" unicode="&#xb9;" horiz-adv-x="317" 
d="M292 656c0 -7 -95 -128 -134 -211c-30 -62 -45 -117 -52 -123c-4 -4 -40 -1 -40 -1s-14 -19 -21 -23c23 79 29 81 43 110c32 62 123 166 116 166c-8 0 -59 -50 -59 -50l-14 -7c6 8 134 142 158 142c7 0 3 -1 3 -3z" />
    <glyph glyph-name="guillemotright" unicode="&#xbb;" horiz-adv-x="285" 
d="M120 283l91 -112l-157 -100l8 23l122 77l-73 89zM219 283l91 -112l-157 -100l8 23l122 77l-73 89z" />
    <glyph glyph-name="onequarter" unicode="&#xbc;" horiz-adv-x="605" 
d="M348 604c0 -7 -95 -128 -134 -211c-30 -62 -45 -117 -52 -123c-4 -4 -40 -1 -40 -1s-14 -19 -21 -23c23 79 29 81 43 110c32 62 123 166 116 166c-8 0 -59 -50 -59 -50l-14 -7c6 8 134 142 158 142c7 0 3 -1 3 -3zM577 656c-96 -114 -382 -523 -419 -620
c-12 -32 -20 -42 -42 -46c-5 -1 -7 -1 -11 -1c-12 0 -14 -17 -21 -27c-2 -3 -4 -6 -8 -6c-5 0 -5 1 -5 6c0 24 22 72 70 151c116 188 198 296 419 545zM558 362c0 0 1 -8 -1 -13c-10 -26 -38 -46 -48 -54c-97 -76 -226 -145 -226 -180c0 -10 31 -17 59 -15l44 3
c4 4 44 74 129 168c3 3 10 12 16 12c2 0 -102 -177 -102 -177l77 6c-7 -13 -8 -18 -14 -28c-18 0 -55 3 -69 3c-11 -23 -34 -87 -45 -87c-10 0 -30 6 -30 6s-14 -19 -22 -22c5 36 44 92 51 105l-61 2c-26 1 -50 3 -50 19c0 26 104 93 166 157l76 82l34 -2z" />
    <glyph glyph-name="onehalf" unicode="&#xbd;" horiz-adv-x="605" 
d="M583 277c0 -105 -163 -140 -220 -168c-32 -16 -78 -51 -78 -62c11 0 37 7 62 8c32 1 58 -11 82 -11c17 0 32 8 63 33c8 -26 -45 -81 -93 -81c-34 0 -57 12 -83 12c-67 0 -64 -10 -72 -10c-1 0 -3 2 -4 4v2c0 13 43 55 60 70c43 37 144 82 162 99c40 37 74 88 74 121
c0 27 -25 49 -55 49c-36 0 -73 -32 -73 -66c0 -16 11 -29 24 -29c7 0 16 7 16 14c0 8 -4 13 -5 19c29 7 34 -18 34 -27c0 -19 -16 -34 -38 -34c-25 0 -43 19 -43 46c0 45 54 89 110 89c47 0 77 -29 77 -78zM577 656c-96 -114 -382 -523 -419 -620c-12 -32 -20 -42 -42 -46
c-5 -1 -7 -1 -11 -1c-12 0 -14 -17 -21 -27c-2 -3 -4 -6 -8 -6c-5 0 -5 1 -5 6c0 24 22 72 70 151c116 188 198 296 419 545zM348 604c0 -7 -95 -128 -134 -211c-30 -62 -45 -117 -52 -123c-4 -4 -40 -1 -40 -1s-14 -19 -21 -23c23 79 29 81 43 110c32 62 123 166 116 166
c-8 0 -59 -50 -59 -50l-14 -7c6 8 134 142 158 142c7 0 3 -1 3 -3z" />
    <glyph glyph-name="threequarters" unicode="&#xbe;" horiz-adv-x="605" 
d="M373 604l-183 -130c28 -3 70 -26 70 -82c0 -71 -76 -138 -156 -138c-44 0 -78 34 -78 75c0 34 27 66 57 66c21 0 40 -20 40 -40c0 -19 -14 -34 -33 -34c-7 0 -17 6 -22 17c14 4 21 8 21 14c0 11 -6 19 -18 19c-22 0 -38 -19 -38 -44c0 -29 21 -50 57 -50
c68 0 123 91 123 138c0 21 -19 36 -42 36c-18 0 -33 -15 -37 -15c-3 0 -9 2 -9 4l158 110c-17 5 -45 15 -74 14s-55 -15 -72 -21c0 0 33 61 93 61c26 0 52 -14 93 -14c14 0 27 3 50 14zM577 656c-96 -114 -382 -523 -419 -620c-12 -32 -20 -42 -42 -46c-5 -1 -7 -1 -11 -1
c-12 0 -14 -17 -21 -27c-2 -3 -4 -6 -8 -6c-5 0 -5 1 -5 6c0 24 22 72 70 151c116 188 198 296 419 545zM558 362c0 0 1 -8 -1 -13c-10 -26 -38 -46 -48 -54c-97 -76 -226 -145 -226 -180c0 -10 31 -17 59 -15l44 3c4 4 44 74 129 168c3 3 10 12 16 12
c2 0 -102 -177 -102 -177l77 6c-7 -13 -8 -18 -14 -28c-18 0 -55 3 -69 3c-11 -23 -34 -87 -45 -87c-10 0 -30 6 -30 6s-14 -19 -22 -22c5 36 44 92 51 105l-61 2c-26 1 -50 3 -50 19c0 26 104 93 166 157l76 82l34 -2z" />
    <glyph glyph-name="questiondown" unicode="&#xbf;" horiz-adv-x="522" 
d="M11 -64c0 67 69 153 157 195l208 103c15 8 32 31 32 46c0 18 -14 30 -38 30c-7 0 -15 -1 -25 -4l-11 7c19 5 34 7 46 8c23 0 42 -17 42 -41c0 -19 -12 -41 -29 -54c-5 -4 -53 -35 -148 -95c-23 -14 -51 -38 -83 -68c-55 -53 -78 -91 -78 -130c0 -53 45 -91 107 -91
c34 0 66 9 96 25c67 38 122 107 122 159c0 29 -21 49 -48 49c-15 0 -32 -5 -55 -18l-10 3c25 18 38 26 67 26c32 0 57 -24 57 -59c0 -110 -128 -217 -260 -217c-83 0 -149 56 -149 126zM406 439c0 30 28 60 58 60c25 0 42 -21 42 -50c0 -30 -28 -60 -58 -60
c-25 0 -42 21 -42 50z" />
    <glyph glyph-name="Agrave" unicode="&#xc0;" 
d="M948 791c38 0 86 -50 168 -93v-7c-85 44 -183 55 -183 89c0 7 8 11 15 11zM1229 -15c0 -84 -102 -151 -183 -153c-153 -3 -254 86 -278 103c-21 -11 -203 -128 -376 -128c-231 0 -400 157 -400 371c0 216 142 360 355 360c24 0 47 -8 58 -12v-12c-16 6 -39 13 -58 13
c-222 0 -344 -163 -344 -349c0 -206 165 -361 389 -361c165 0 366 126 366 126l-36 32s-102 -22 -102 27c0 47 105 -3 105 -3c12 0 73 56 78 69c10 24 81 175 81 242c-30 -6 -90 -9 -122 -9c-54 -78 -187 -330 -366 -330c-103 0 -157 57 -157 130c0 111 112 215 265 215h249
s30 65 78 126c146 184 290 216 290 216c6 0 10 -9 10 -16c0 -36 -127 -65 -145 -299c0 0 194 63 194 244c0 143 -146 255 -329 255c-199 0 -339 -142 -339 -259c0 -147 105 -182 105 -182l-3 -13s-116 37 -116 195c0 123 148 273 353 273c192 0 343 -119 343 -269
c0 -195 -210 -262 -210 -262s-7 -58 -10 -71c-10 -41 -78 -191 -228 -274c12 -11 25 -23 30 -28c216 134 244 149 319 149s134 -52 134 -116zM1056 617c-25 0 -119 -72 -180 -142c-68 -77 -98 -145 -103 -159c16 0 80 3 112 9c24 156 189 292 171 292zM1215 -16
c0 59 -51 103 -119 103c-80 0 -110 -22 -310 -144c0 0 106 -97 260 -97c79 0 169 67 169 138zM696 -10c0 0 -55 30 -55 9c0 -25 55 -9 55 -9zM741 299h-201c-138 0 -254 -95 -254 -198c0 -85 44 -116 110 -116c157 0 287 226 345 314z" />
    <glyph glyph-name="Aacute" unicode="&#xc1;" 
d="M1076 757c0 -34 -98 -45 -183 -89v7c82 43 130 93 168 93c7 0 15 -4 15 -11zM1229 -15c0 -84 -102 -151 -183 -153c-153 -3 -254 86 -278 103c-21 -11 -203 -128 -376 -128c-231 0 -400 157 -400 371c0 216 142 360 355 360c24 0 47 -8 58 -12v-12c-16 6 -39 13 -58 13
c-222 0 -344 -163 -344 -349c0 -206 165 -361 389 -361c165 0 366 126 366 126l-36 32s-102 -22 -102 27c0 47 105 -3 105 -3c12 0 73 56 78 69c10 24 81 175 81 242c-30 -6 -90 -9 -122 -9c-54 -78 -187 -330 -366 -330c-103 0 -157 57 -157 130c0 111 112 215 265 215h249
s30 65 78 126c146 184 290 216 290 216c6 0 10 -9 10 -16c0 -36 -127 -65 -145 -299c0 0 194 63 194 244c0 143 -146 255 -329 255c-199 0 -339 -142 -339 -259c0 -147 105 -182 105 -182l-3 -13s-116 37 -116 195c0 123 148 273 353 273c192 0 343 -119 343 -269
c0 -195 -210 -262 -210 -262s-7 -58 -10 -71c-10 -41 -78 -191 -228 -274c12 -11 25 -23 30 -28c216 134 244 149 319 149s134 -52 134 -116zM1056 617c-25 0 -119 -72 -180 -142c-68 -77 -98 -145 -103 -159c16 0 80 3 112 9c24 156 189 292 171 292zM1215 -16
c0 59 -51 103 -119 103c-80 0 -110 -22 -310 -144c0 0 106 -97 260 -97c79 0 169 67 169 138zM696 -10c0 0 -55 30 -55 9c0 -25 55 -9 55 -9zM741 299h-201c-138 0 -254 -95 -254 -198c0 -85 44 -116 110 -116c157 0 287 226 345 314z" />
    <glyph glyph-name="Acircumflex" unicode="&#xc2;" 
d="M1141 677c5 -5 2 -8 -6 -3c-28 19 -51 35 -74 52c-24 -15 -91 -41 -119 -56c-7 -4 -12 -1 -5 5c32 25 87 57 115 79c6 5 12 5 17 0c26 -28 52 -57 72 -77zM1229 -15c0 -84 -102 -151 -183 -153c-153 -3 -254 86 -278 103c-21 -11 -203 -128 -376 -128
c-231 0 -400 157 -400 371c0 216 142 360 355 360c24 0 47 -8 58 -12v-12c-16 6 -39 13 -58 13c-222 0 -344 -163 -344 -349c0 -206 165 -361 389 -361c165 0 366 126 366 126l-36 32s-102 -22 -102 27c0 47 105 -3 105 -3c12 0 73 56 78 69c10 24 81 175 81 242
c-30 -6 -90 -9 -122 -9c-54 -78 -187 -330 -366 -330c-103 0 -157 57 -157 130c0 111 112 215 265 215h249s30 65 78 126c146 184 290 216 290 216c6 0 10 -9 10 -16c0 -36 -127 -65 -145 -299c0 0 194 63 194 244c0 143 -146 255 -329 255c-199 0 -339 -142 -339 -259
c0 -147 105 -182 105 -182l-3 -13s-116 37 -116 195c0 123 148 273 353 273c192 0 343 -119 343 -269c0 -195 -210 -262 -210 -262s-7 -58 -10 -71c-10 -41 -78 -191 -228 -274c12 -11 25 -23 30 -28c216 134 244 149 319 149s134 -52 134 -116zM1056 617
c-25 0 -119 -72 -180 -142c-68 -77 -98 -145 -103 -159c16 0 80 3 112 9c24 156 189 292 171 292zM1215 -16c0 59 -51 103 -119 103c-80 0 -110 -22 -310 -144c0 0 106 -97 260 -97c79 0 169 67 169 138zM696 -10c0 0 -55 30 -55 9c0 -25 55 -9 55 -9zM741 299h-201
c-138 0 -254 -95 -254 -198c0 -85 44 -116 110 -116c157 0 287 226 345 314z" />
    <glyph glyph-name="Atilde" unicode="&#xc3;" 
d="M1071 767c-11 -33 -37 -51 -67 -51c-33 0 -54 8 -84 8c-20 0 -35 -5 -55 -9c16 33 48 49 82 49c21 0 42 -6 69 -6c23 0 35 5 55 9zM1229 -15c0 -84 -102 -151 -183 -153c-153 -3 -254 86 -278 103c-21 -11 -203 -128 -376 -128c-231 0 -400 157 -400 371
c0 216 142 360 355 360c24 0 47 -8 58 -12v-12c-16 6 -39 13 -58 13c-222 0 -344 -163 -344 -349c0 -206 165 -361 389 -361c165 0 366 126 366 126l-36 32s-102 -22 -102 27c0 47 105 -3 105 -3c12 0 73 56 78 69c10 24 81 175 81 242c-30 -6 -90 -9 -122 -9
c-54 -78 -187 -330 -366 -330c-103 0 -157 57 -157 130c0 111 112 215 265 215h249s30 65 78 126c146 184 290 216 290 216c6 0 10 -9 10 -16c0 -36 -127 -65 -145 -299c0 0 194 63 194 244c0 143 -146 255 -329 255c-199 0 -339 -142 -339 -259c0 -147 105 -182 105 -182
l-3 -13s-116 37 -116 195c0 123 148 273 353 273c192 0 343 -119 343 -269c0 -195 -210 -262 -210 -262s-7 -58 -10 -71c-10 -41 -78 -191 -228 -274c12 -11 25 -23 30 -28c216 134 244 149 319 149s134 -52 134 -116zM1056 617c-25 0 -119 -72 -180 -142
c-68 -77 -98 -145 -103 -159c16 0 80 3 112 9c24 156 189 292 171 292zM1215 -16c0 59 -51 103 -119 103c-80 0 -110 -22 -310 -144c0 0 106 -97 260 -97c79 0 169 67 169 138zM696 -10c0 0 -55 30 -55 9c0 -25 55 -9 55 -9zM741 299h-201c-138 0 -254 -95 -254 -198
c0 -85 44 -116 110 -116c157 0 287 226 345 314z" />
    <glyph glyph-name="Adieresis" unicode="&#xc4;" 
d="M948 749c15 0 28 -14 24 -30c-3 -15 -21 -29 -36 -29c-18 0 -27 14 -24 29c3 16 20 30 36 30zM1073 749c16 0 28 -14 24 -30c-3 -15 -20 -29 -36 -29c-17 0 -27 14 -24 29c3 16 20 30 36 30zM1229 -15c0 -84 -102 -151 -183 -153c-153 -3 -254 86 -278 103
c-21 -11 -203 -128 -376 -128c-231 0 -400 157 -400 371c0 216 142 360 355 360c24 0 47 -8 58 -12v-12c-16 6 -39 13 -58 13c-222 0 -344 -163 -344 -349c0 -206 165 -361 389 -361c165 0 366 126 366 126l-36 32s-102 -22 -102 27c0 47 105 -3 105 -3c12 0 73 56 78 69
c10 24 81 175 81 242c-30 -6 -90 -9 -122 -9c-54 -78 -187 -330 -366 -330c-103 0 -157 57 -157 130c0 111 112 215 265 215h249s30 65 78 126c146 184 290 216 290 216c6 0 10 -9 10 -16c0 -36 -127 -65 -145 -299c0 0 194 63 194 244c0 143 -146 255 -329 255
c-199 0 -339 -142 -339 -259c0 -147 105 -182 105 -182l-3 -13s-116 37 -116 195c0 123 148 273 353 273c192 0 343 -119 343 -269c0 -195 -210 -262 -210 -262s-7 -58 -10 -71c-10 -41 -78 -191 -228 -274c12 -11 25 -23 30 -28c216 134 244 149 319 149s134 -52 134 -116z
M1056 617c-25 0 -119 -72 -180 -142c-68 -77 -98 -145 -103 -159c16 0 80 3 112 9c24 156 189 292 171 292zM1215 -16c0 59 -51 103 -119 103c-80 0 -110 -22 -310 -144c0 0 106 -97 260 -97c79 0 169 67 169 138zM696 -10c0 0 -55 30 -55 9c0 -25 55 -9 55 -9zM741 299
h-201c-138 0 -254 -95 -254 -198c0 -85 44 -116 110 -116c157 0 287 226 345 314z" />
    <glyph glyph-name="Aring" unicode="&#xc5;" 
d="M1070 715c-6 -33 -29 -55 -64 -55c-30 0 -40 22 -35 55c5 31 29 57 63 57c31 0 42 -26 36 -57zM1054 715c6 26 -7 40 -24 40c-24 0 -34 -14 -40 -40c-5 -25 1 -38 21 -38s37 13 43 38zM1229 -15c0 -84 -102 -151 -183 -153c-153 -3 -254 86 -278 103
c-21 -11 -203 -128 -376 -128c-231 0 -400 157 -400 371c0 216 142 360 355 360c24 0 47 -8 58 -12v-12c-16 6 -39 13 -58 13c-222 0 -344 -163 -344 -349c0 -206 165 -361 389 -361c165 0 366 126 366 126l-36 32s-102 -22 -102 27c0 47 105 -3 105 -3c12 0 73 56 78 69
c10 24 81 175 81 242c-30 -6 -90 -9 -122 -9c-54 -78 -187 -330 -366 -330c-103 0 -157 57 -157 130c0 111 112 215 265 215h249s30 65 78 126c146 184 290 216 290 216c6 0 10 -9 10 -16c0 -36 -127 -65 -145 -299c0 0 194 63 194 244c0 143 -146 255 -329 255
c-199 0 -339 -142 -339 -259c0 -147 105 -182 105 -182l-3 -13s-116 37 -116 195c0 123 148 273 353 273c192 0 343 -119 343 -269c0 -195 -210 -262 -210 -262s-7 -58 -10 -71c-10 -41 -78 -191 -228 -274c12 -11 25 -23 30 -28c216 134 244 149 319 149s134 -52 134 -116z
M1056 617c-25 0 -119 -72 -180 -142c-68 -77 -98 -145 -103 -159c16 0 80 3 112 9c24 156 189 292 171 292zM1215 -16c0 59 -51 103 -119 103c-80 0 -110 -22 -310 -144c0 0 106 -97 260 -97c79 0 169 67 169 138zM696 -10c0 0 -55 30 -55 9c0 -25 55 -9 55 -9zM741 299
h-201c-138 0 -254 -95 -254 -198c0 -85 44 -116 110 -116c157 0 287 226 345 314z" />
    <glyph glyph-name="AE" unicode="&#xc6;" horiz-adv-x="1475" 
d="M1182 476v2c0 -31 9 -76 22 -98c9 -12 38 -14 39 -33c0 -8 -4 -11 -12 -12c-21 -3 -40 23 -40 23c-73 44 -207 -39 -207 -173c0 -32 6 -62 17 -89c36 15 60 18 94 18c7 0 14 -1 21 -2c-6 13 -9 28 -9 44c0 81 88 172 177 172c60 0 102 -50 102 -120
c0 -102 -69 -189 -158 -223c-9 -78 -105 -139 -182 -141c-153 -3 -254 86 -278 103c-21 -11 -203 -128 -376 -128c-231 0 -400 157 -400 371c0 216 142 360 355 360c24 0 47 -8 58 -12v-12c-16 6 -39 13 -58 13c-222 0 -344 -163 -344 -349c0 -206 165 -361 389 -361
c165 0 366 126 366 126l-36 32s-102 -22 -102 27c0 47 105 -3 105 -3c12 0 73 56 78 69c10 24 81 175 81 242c-30 -6 -90 -9 -122 -9c-54 -78 -187 -330 -366 -330c-103 0 -157 57 -157 130c0 111 112 215 265 215h249s30 65 78 126c146 184 290 216 290 216
c6 0 10 -9 10 -16c0 -35 -119 -63 -143 -278c39 23 89 35 150 31c-19 28 -35 71 -35 98c0 91 85 159 186 159c74 0 134 -56 134 -120c0 -38 -30 -72 -70 -92l-7 8c37 15 64 45 64 83c0 46 -41 85 -90 85c-92 -1 -138 -77 -138 -152zM741 312h-201c-138 0 -254 -95 -254 -198
c0 -85 44 -116 110 -116c157 0 287 226 345 314zM696 3c0 0 -55 30 -55 9c0 -25 55 -9 55 -9zM1056 630c-25 0 -119 -72 -180 -142c-68 -77 -98 -145 -103 -159c16 0 80 3 112 9c24 156 189 292 171 292zM1215 -1h-1c-1 25 -11 47 -27 64c-26 1 -48 14 -63 34
c-9 2 -19 3 -29 3c-33 0 -57 -4 -88 -17c28 -57 79 -95 138 -95c24 0 48 4 70 11zM939 49v-1c-37 -21 -85 -51 -153 -92c0 0 106 -97 260 -97c73 0 155 57 167 122c-22 -7 -45 -11 -68 -11c-94 0 -163 30 -206 79zM897 125c-36 -47 -86 -96 -152 -132c12 -11 25 -23 30 -28
l155 94c-15 20 -26 42 -33 66zM1133 108l1 -2c23 -6 43 -17 59 -32c98 2 103 133 103 165h12c3 -48 -9 -167 -103 -178c14 -17 22 -37 23 -59c83 33 143 114 143 205c0 63 -35 106 -88 106c-83 0 -163 -87 -163 -158c0 -18 5 -34 13 -47z" />
    <glyph glyph-name="Ccedilla" unicode="&#xc7;" horiz-adv-x="933" 
d="M798 272c0 51 -29 67 -66 67c-106 0 -228 -166 -228 -281c0 -23 2 -29 11 -52c22 -15 29 -14 41 -14c116 0 242 193 242 280zM1066 561c0 35 -38 47 -90 47c-90 0 -231 -109 -231 -109c68 -10 143 -18 171 -18c60 0 150 14 150 80zM1153 -254l-1 2c0 -24 -7 -33 -22 -54
c-3 3 -3 3 -5 6c14 26 15 29 15 48c0 76 -123 148 -265 148c-201 0 -368 -154 -552 -154c-198 0 -321 155 -321 347c0 231 196 446 451 446c93 0 194 -19 197 -16c0 0 172 102 325 102c80 0 101 -29 101 -58c0 -44 -51 -91 -161 -91c-57 0 -192 19 -192 19
s-76 -62 -129 -126c-75 -90 -127 -197 -129 -268c0 -26 8 -46 22 -60c-13 92 88 322 265 322c49 0 79 -35 79 -92c0 -163 -192 -309 -294 -290c0 0 23 -31 63 -31c102 0 204 140 204 140l8 -9s-98 -145 -212 -145c-37 0 -65 21 -81 37l-11 -18c20 -4 36 -18 36 -40
c0 -26 -30 -46 -58 -46c-24 0 -37 4 -60 16c-13 7 -2 17 9 11c9 -5 71 -18 71 17c0 18 -31 14 -50 12l8 26c9 4 19 6 29 6l15 28c-3 3 -4 5 -4 5s-95 37 -95 177c0 187 201 326 229 342c0 3 -117 17 -184 17c-250 0 -440 -218 -440 -435c0 -182 117 -336 310 -336
c166 0 357 154 552 154c153 0 277 -67 277 -159z" />
    <glyph glyph-name="Egrave" unicode="&#xc8;" horiz-adv-x="973" 
d="M672 779c38 0 86 -50 168 -93v-7c-85 44 -183 55 -183 89c0 7 8 11 15 11zM682 378h-1c9 -12 38 -14 39 -33c0 -8 -4 -11 -12 -12c-21 -3 -40 23 -40 23c-73 44 -207 -39 -207 -173c0 -108 71 -197 161 -197c123 0 227 102 227 221c0 63 -35 106 -88 106
c-83 0 -163 -87 -163 -158c0 -46 31 -80 70 -80c100 0 105 133 105 165h12c3 -50 -10 -179 -117 -179c-48 0 -84 42 -84 94c0 81 88 172 177 172c60 0 102 -50 102 -120c0 -132 -115 -239 -241 -239c-167 0 -256 96 -256 222c0 120 85 228 248 216c-19 28 -29 55 -33 81
c-46 13 -105 23 -191 23c-230 0 -378 -100 -378 -215c0 -8 12 -51 15 -55l-12 -8s-16 29 -16 62c0 126 153 229 391 229c89 0 148 -8 191 -18c-2 91 82 159 185 158c74 -1 134 -56 134 -120c0 -56 -62 -107 -134 -107c-40 0 -70 11 -105 24c1 -31 8 -60 21 -82zM660 476h-1
c32 -15 60 -28 105 -28c56 0 122 39 122 95c0 46 -41 85 -90 85c-92 -1 -133 -78 -136 -152z" />
    <glyph glyph-name="Eacute" unicode="&#xc9;" horiz-adv-x="973" 
d="M858 769c0 -34 -98 -45 -183 -89v7c82 43 130 93 168 93c7 0 15 -4 15 -11zM682 378h-1c9 -12 38 -14 39 -33c0 -8 -4 -11 -12 -12c-21 -3 -40 23 -40 23c-73 44 -207 -39 -207 -173c0 -108 71 -197 161 -197c123 0 227 102 227 221c0 63 -35 106 -88 106
c-83 0 -163 -87 -163 -158c0 -46 31 -80 70 -80c100 0 105 133 105 165h12c3 -50 -10 -179 -117 -179c-48 0 -84 42 -84 94c0 81 88 172 177 172c60 0 102 -50 102 -120c0 -132 -115 -239 -241 -239c-167 0 -256 96 -256 222c0 120 85 228 248 216c-19 28 -29 55 -33 81
c-46 13 -105 23 -191 23c-230 0 -378 -100 -378 -215c0 -8 12 -51 15 -55l-12 -8s-16 29 -16 62c0 126 153 229 391 229c89 0 148 -8 191 -18c-2 91 82 159 185 158c74 -1 134 -56 134 -120c0 -56 -62 -107 -134 -107c-40 0 -70 11 -105 24c1 -31 8 -60 21 -82zM660 476h-1
c32 -15 60 -28 105 -28c56 0 122 39 122 95c0 46 -41 85 -90 85c-92 -1 -133 -78 -136 -152z" />
    <glyph glyph-name="Ecircumflex" unicode="&#xca;" horiz-adv-x="973" 
d="M850 692c5 -5 2 -8 -6 -3c-28 19 -51 35 -74 52c-24 -15 -91 -41 -119 -56c-7 -4 -12 -1 -5 5c32 25 87 57 115 79c6 5 12 5 17 0c26 -28 52 -57 72 -77zM682 378h-1c9 -12 38 -14 39 -33c0 -8 -4 -11 -12 -12c-21 -3 -40 23 -40 23c-73 44 -207 -39 -207 -173
c0 -108 71 -197 161 -197c123 0 227 102 227 221c0 63 -35 106 -88 106c-83 0 -163 -87 -163 -158c0 -46 31 -80 70 -80c100 0 105 133 105 165h12c3 -50 -10 -179 -117 -179c-48 0 -84 42 -84 94c0 81 88 172 177 172c60 0 102 -50 102 -120c0 -132 -115 -239 -241 -239
c-167 0 -256 96 -256 222c0 120 85 228 248 216c-19 28 -29 55 -33 81c-46 13 -105 23 -191 23c-230 0 -378 -100 -378 -215c0 -8 12 -51 15 -55l-12 -8s-16 29 -16 62c0 126 153 229 391 229c89 0 148 -8 191 -18c-2 91 82 159 185 158c74 -1 134 -56 134 -120
c0 -56 -62 -107 -134 -107c-40 0 -70 11 -105 24c1 -31 8 -60 21 -82zM660 476h-1c32 -15 60 -28 105 -28c56 0 122 39 122 95c0 46 -41 85 -90 85c-92 -1 -133 -78 -136 -152z" />
    <glyph glyph-name="Edieresis" unicode="&#xcb;" horiz-adv-x="973" 
d="M713 757c15 0 28 -14 24 -30c-3 -15 -21 -29 -36 -29c-18 0 -27 14 -24 29c3 16 20 30 36 30zM838 757c16 0 28 -14 24 -30c-3 -15 -20 -29 -36 -29c-17 0 -27 14 -24 29c3 16 20 30 36 30zM682 378h-1c9 -12 38 -14 39 -33c0 -8 -4 -11 -12 -12c-21 -3 -40 23 -40 23
c-73 44 -207 -39 -207 -173c0 -108 71 -197 161 -197c123 0 227 102 227 221c0 63 -35 106 -88 106c-83 0 -163 -87 -163 -158c0 -46 31 -80 70 -80c100 0 105 133 105 165h12c3 -50 -10 -179 -117 -179c-48 0 -84 42 -84 94c0 81 88 172 177 172c60 0 102 -50 102 -120
c0 -132 -115 -239 -241 -239c-167 0 -256 96 -256 222c0 120 85 228 248 216c-19 28 -29 55 -33 81c-46 13 -105 23 -191 23c-230 0 -378 -100 -378 -215c0 -8 12 -51 15 -55l-12 -8s-16 29 -16 62c0 126 153 229 391 229c89 0 148 -8 191 -18c-2 91 82 159 185 158
c74 -1 134 -56 134 -120c0 -56 -62 -107 -134 -107c-40 0 -70 11 -105 24c1 -31 8 -60 21 -82zM660 476h-1c32 -15 60 -28 105 -28c56 0 122 39 122 95c0 46 -41 85 -90 85c-92 -1 -133 -78 -136 -152z" />
    <glyph glyph-name="Igrave" unicode="&#xcc;" horiz-adv-x="789" 
d="M718 779c38 0 86 -50 168 -93v-7c-85 44 -183 55 -183 89c0 7 8 11 15 11zM1032 609c-52 -1 -93 -9 -120 -18c-186 -60 -246 -327 -246 -343c0 -5 77 28 107 60c19 21 39 60 57 115l9 -4c0 -6 -24 -83 -59 -121c-34 -37 -93 -60 -118 -65c-64 -188 -183 -261 -359 -261
c-118 0 -291 71 -291 287c-8 42 -9 74 -9 107c0 181 153 312 300 312c59 0 101 -22 101 -22l-2 -9s-47 22 -100 22c-135 0 -290 -124 -290 -303c0 -27 8 -72 8 -72s45 222 290 222c94 0 159 -54 159 -54c17 51 38 77 70 105c66 62 171 95 291 95c82 0 167 -20 195 -35
c7 -5 4 -11 7 -18zM1014 615c-6 11 -87 39 -184 39c-164 0 -311 -70 -351 -201c11 -17 33 -41 43 -95c6 -30 8 -87 8 -87s33 -24 49 -27c14 38 65 223 212 319c55 36 102 46 223 52zM519 288c-3 26 -2 47 -7 68c-6 27 -15 54 -36 84c0 0 3 -51 9 -80c7 -31 21 -51 34 -72z
M519 266c-17 23 -36 54 -45 91c-9 35 -9 94 -9 94s-58 56 -155 56c-245 0 -281 -220 -286 -241c0 0 59 -203 240 -203c197 0 243 173 255 203zM575 232c0 0 -29 10 -47 26c-52 -155 -150 -203 -264 -204c-171 -1 -226 156 -241 186c15 -196 166 -257 280 -257
c77 0 218 115 272 249z" />
    <glyph glyph-name="Iacute" unicode="&#xcd;" horiz-adv-x="789" 
d="M912 769c0 -34 -98 -45 -183 -89v7c82 43 130 93 168 93c7 0 15 -4 15 -11zM1032 609c-52 -1 -93 -9 -120 -18c-186 -60 -246 -327 -246 -343c0 -5 77 28 107 60c19 21 39 60 57 115l9 -4c0 -6 -24 -83 -59 -121c-34 -37 -93 -60 -118 -65c-64 -188 -183 -261 -359 -261
c-118 0 -291 71 -291 287c-8 42 -9 74 -9 107c0 181 153 312 300 312c59 0 101 -22 101 -22l-2 -9s-47 22 -100 22c-135 0 -290 -124 -290 -303c0 -27 8 -72 8 -72s45 222 290 222c94 0 159 -54 159 -54c17 51 38 77 70 105c66 62 171 95 291 95c82 0 167 -20 195 -35
c7 -5 4 -11 7 -18zM1014 615c-6 11 -87 39 -184 39c-164 0 -311 -70 -351 -201c11 -17 33 -41 43 -95c6 -30 8 -87 8 -87s33 -24 49 -27c14 38 65 223 212 319c55 36 102 46 223 52zM519 288c-3 26 -2 47 -7 68c-6 27 -15 54 -36 84c0 0 3 -51 9 -80c7 -31 21 -51 34 -72z
M519 266c-17 23 -36 54 -45 91c-9 35 -9 94 -9 94s-58 56 -155 56c-245 0 -281 -220 -286 -241c0 0 59 -203 240 -203c197 0 243 173 255 203zM575 232c0 0 -29 10 -47 26c-52 -155 -150 -203 -264 -204c-171 -1 -226 156 -241 186c15 -196 166 -257 280 -257
c77 0 218 115 272 249z" />
    <glyph glyph-name="Icircumflex" unicode="&#xce;" horiz-adv-x="789" 
d="M916 692c5 -5 2 -8 -6 -3c-28 19 -51 35 -74 52c-24 -15 -91 -41 -119 -56c-7 -4 -12 -1 -5 5c32 25 87 57 115 79c6 5 12 5 17 0c26 -28 52 -57 72 -77zM1032 609c-52 -1 -93 -9 -120 -18c-186 -60 -246 -327 -246 -343c0 -5 77 28 107 60c19 21 39 60 57 115l9 -4
c0 -6 -24 -83 -59 -121c-34 -37 -93 -60 -118 -65c-64 -188 -183 -261 -359 -261c-118 0 -291 71 -291 287c-8 42 -9 74 -9 107c0 181 153 312 300 312c59 0 101 -22 101 -22l-2 -9s-47 22 -100 22c-135 0 -290 -124 -290 -303c0 -27 8 -72 8 -72s45 222 290 222
c94 0 159 -54 159 -54c17 51 38 77 70 105c66 62 171 95 291 95c82 0 167 -20 195 -35c7 -5 4 -11 7 -18zM1014 615c-6 11 -87 39 -184 39c-164 0 -311 -70 -351 -201c11 -17 33 -41 43 -95c6 -30 8 -87 8 -87s33 -24 49 -27c14 38 65 223 212 319c55 36 102 46 223 52z
M519 288c-3 26 -2 47 -7 68c-6 27 -15 54 -36 84c0 0 3 -51 9 -80c7 -31 21 -51 34 -72zM519 266c-17 23 -36 54 -45 91c-9 35 -9 94 -9 94s-58 56 -155 56c-245 0 -281 -220 -286 -241c0 0 59 -203 240 -203c197 0 243 173 255 203zM575 232c0 0 -29 10 -47 26
c-52 -155 -150 -203 -264 -204c-171 -1 -226 156 -241 186c15 -196 166 -257 280 -257c77 0 218 115 272 249z" />
    <glyph glyph-name="Idieresis" unicode="&#xcf;" horiz-adv-x="789" 
d="M770 757c15 0 28 -14 24 -30c-3 -15 -21 -29 -36 -29c-18 0 -27 14 -24 29c3 16 20 30 36 30zM895 757c16 0 28 -14 24 -30c-3 -15 -20 -29 -36 -29c-17 0 -27 14 -24 29c3 16 20 30 36 30zM1032 609c-52 -1 -93 -9 -120 -18c-186 -60 -246 -327 -246 -343
c0 -5 77 28 107 60c19 21 39 60 57 115l9 -4c0 -6 -24 -83 -59 -121c-34 -37 -93 -60 -118 -65c-64 -188 -183 -261 -359 -261c-118 0 -291 71 -291 287c-8 42 -9 74 -9 107c0 181 153 312 300 312c59 0 101 -22 101 -22l-2 -9s-47 22 -100 22c-135 0 -290 -124 -290 -303
c0 -27 8 -72 8 -72s45 222 290 222c94 0 159 -54 159 -54c17 51 38 77 70 105c66 62 171 95 291 95c82 0 167 -20 195 -35c7 -5 4 -11 7 -18zM1014 615c-6 11 -87 39 -184 39c-164 0 -311 -70 -351 -201c11 -17 33 -41 43 -95c6 -30 8 -87 8 -87s33 -24 49 -27
c14 38 65 223 212 319c55 36 102 46 223 52zM519 288c-3 26 -2 47 -7 68c-6 27 -15 54 -36 84c0 0 3 -51 9 -80c7 -31 21 -51 34 -72zM519 266c-17 23 -36 54 -45 91c-9 35 -9 94 -9 94s-58 56 -155 56c-245 0 -281 -220 -286 -241c0 0 59 -203 240 -203
c197 0 243 173 255 203zM575 232c0 0 -29 10 -47 26c-52 -155 -150 -203 -264 -204c-171 -1 -226 156 -241 186c15 -196 166 -257 280 -257c77 0 218 115 272 249z" />
    <glyph glyph-name="Ntilde" unicode="&#xd1;" horiz-adv-x="1041" 
d="M1179 791c-11 -33 -37 -51 -67 -51c-33 0 -54 8 -84 8c-20 0 -35 -5 -55 -9c16 33 48 49 82 49c21 0 42 -6 69 -6c23 0 35 5 55 9zM1355 684c0 -35 -42 -66 -108 -66c-50 0 -93 17 -93 17s-20 -32 -41 -72c-70 -133 -98 -208 -226 -413c-57 -92 -98 -162 -113 -162
c-7 0 -13 5 -13 11c0 5 39 81 39 133c0 77 -18 140 -15 228c1 59 3 69 15 150l-159 -315c-101 -193 -210 -284 -357 -284c-171 0 -284 103 -284 256c0 182 151 327 326 327c34 0 67 -5 67 -5c6 90 75 198 162 237c51 23 100 27 198 27c114 0 367 -93 395 -106
c27 30 75 81 141 81c39 0 66 -17 66 -44zM1346 684c0 21 -33 35 -57 35c-57 0 -109 -49 -129 -75c8 -2 39 -15 87 -15c52 0 99 21 99 55zM1143 638c0 0 -280 106 -390 106c-75 0 -124 -18 -186 -48c-106 -51 -144 -147 -156 -213c81 -35 105 -72 131 -162
c80 9 138 50 138 141c0 30 -17 72 -17 72l9 2s18 -48 18 -74c0 -82 -40 -140 -146 -154c0 -80 -10 -123 -53 -186c-53 -75 -144 -122 -221 -122c-87 0 -154 67 -154 161c0 118 96 226 201 226c74 0 136 -59 136 -132c0 -29 -11 -54 -22 -76c0 0 -8 -2 -11 -2
c14 30 23 54 23 78c0 65 -58 123 -126 123c-110 0 -191 -120 -191 -217c0 -88 62 -153 144 -153c71 0 166 50 213 118c50 72 52 135 52 183c-81 12 -144 88 -142 170c0 0 -43 7 -67 7c-173 0 -318 -141 -318 -319c0 -148 113 -248 276 -248c136 0 249 89 346 276
c65 123 144 290 158 315c44 78 150 168 150 168s-80 27 -132 27c-136 0 -269 -78 -269 -142c0 -27 32 -44 32 -44l-2 -9s-40 15 -40 53c0 72 135 151 279 151c49 0 81 -7 154 -31c-91 -75 -115 -110 -115 -180c0 -17 40 -243 40 -254c0 -22 -7 -61 -34 -138
c137 218 157 268 253 459c19 38 39 68 39 68zM533 321c-22 75 -38 117 -122 152c-4 -92 78 -143 122 -152z" />
    <glyph glyph-name="Ograve" unicode="&#xd2;" horiz-adv-x="600" 
d="M345 779c38 0 86 -50 168 -93v-7c-85 44 -183 55 -183 89c0 7 8 11 15 11zM570 476c0 -58 -40 -181 -79 -250c-87 -152 -220 -250 -333 -250c-93 0 -158 82 -158 182c0 116 84 270 207 386c63 54 122 88 171 94h42c-94 -46 -121 -70 -181 -151
c-108 -153 -165 -290 -165 -405c0 -60 36 -100 84 -100c76 0 168 86 249 233c73 132 108 237 108 315c0 56 -17 81 -56 81c-89 0 -217 -153 -217 -277c0 -47 27 -75 63 -75c95 0 157 135 157 187c0 34 -20 59 -37 59c-9 0 -31 -5 -58 -36l-7 7c29 29 47 39 65 39
c28 0 48 -34 48 -69c0 -77 -72 -198 -168 -198c-44 0 -74 33 -74 86c0 117 123 286 228 286c59 0 111 -69 111 -144z" />
    <glyph glyph-name="Oacute" unicode="&#xd3;" horiz-adv-x="600" 
d="M535 769c0 -34 -98 -45 -183 -89v7c82 43 130 93 168 93c7 0 15 -4 15 -11zM570 476c0 -58 -40 -181 -79 -250c-87 -152 -220 -250 -333 -250c-93 0 -158 82 -158 182c0 116 84 270 207 386c63 54 122 88 171 94h42c-94 -46 -121 -70 -181 -151
c-108 -153 -165 -290 -165 -405c0 -60 36 -100 84 -100c76 0 168 86 249 233c73 132 108 237 108 315c0 56 -17 81 -56 81c-89 0 -217 -153 -217 -277c0 -47 27 -75 63 -75c95 0 157 135 157 187c0 34 -20 59 -37 59c-9 0 -31 -5 -58 -36l-7 7c29 29 47 39 65 39
c28 0 48 -34 48 -69c0 -77 -72 -198 -168 -198c-44 0 -74 33 -74 86c0 117 123 286 228 286c59 0 111 -69 111 -144z" />
    <glyph glyph-name="Ocircumflex" unicode="&#xd4;" horiz-adv-x="600" 
d="M548 692c5 -5 2 -8 -6 -3c-28 19 -51 35 -74 52c-24 -15 -91 -41 -119 -56c-7 -4 -12 -1 -5 5c32 25 87 57 115 79c6 5 12 5 17 0c26 -28 52 -57 72 -77zM570 476c0 -58 -40 -181 -79 -250c-87 -152 -220 -250 -333 -250c-93 0 -158 82 -158 182c0 116 84 270 207 386
c63 54 122 88 171 94h42c-94 -46 -121 -70 -181 -151c-108 -153 -165 -290 -165 -405c0 -60 36 -100 84 -100c76 0 168 86 249 233c73 132 108 237 108 315c0 56 -17 81 -56 81c-89 0 -217 -153 -217 -277c0 -47 27 -75 63 -75c95 0 157 135 157 187c0 34 -20 59 -37 59
c-9 0 -31 -5 -58 -36l-7 7c29 29 47 39 65 39c28 0 48 -34 48 -69c0 -77 -72 -198 -168 -198c-44 0 -74 33 -74 86c0 117 123 286 228 286c59 0 111 -69 111 -144z" />
    <glyph glyph-name="Otilde" unicode="&#xd5;" horiz-adv-x="600" 
d="M541 757c-11 -33 -37 -51 -67 -51c-33 0 -54 8 -84 8c-20 0 -35 -5 -55 -9c16 33 48 49 82 49c21 0 42 -7 69 -7c23 0 35 6 55 10zM570 476c0 -58 -40 -181 -79 -250c-87 -152 -220 -250 -333 -250c-93 0 -158 82 -158 182c0 116 84 270 207 386c63 54 122 88 171 94h42
c-94 -46 -121 -70 -181 -151c-108 -153 -165 -290 -165 -405c0 -60 36 -100 84 -100c76 0 168 86 249 233c73 132 108 237 108 315c0 56 -17 81 -56 81c-89 0 -217 -153 -217 -277c0 -47 27 -75 63 -75c95 0 157 135 157 187c0 34 -20 59 -37 59c-9 0 -31 -5 -58 -36l-7 7
c29 29 47 39 65 39c28 0 48 -34 48 -69c0 -77 -72 -198 -168 -198c-44 0 -74 33 -74 86c0 117 123 286 228 286c59 0 111 -69 111 -144z" />
    <glyph glyph-name="Odieresis" unicode="&#xd6;" horiz-adv-x="600" 
d="M390 757c15 0 28 -14 24 -30c-3 -15 -21 -29 -36 -29c-18 0 -27 14 -24 29c3 16 20 30 36 30zM515 757c16 0 28 -14 24 -30c-3 -15 -20 -29 -36 -29c-17 0 -27 14 -24 29c3 16 20 30 36 30zM570 476c0 -58 -40 -181 -79 -250c-87 -152 -220 -250 -333 -250
c-93 0 -158 82 -158 182c0 116 84 270 207 386c63 54 122 88 171 94h42c-94 -46 -121 -70 -181 -151c-108 -153 -165 -290 -165 -405c0 -60 36 -100 84 -100c76 0 168 86 249 233c73 132 108 237 108 315c0 56 -17 81 -56 81c-89 0 -217 -153 -217 -277c0 -47 27 -75 63 -75
c95 0 157 135 157 187c0 34 -20 59 -37 59c-9 0 -31 -5 -58 -36l-7 7c29 29 47 39 65 39c28 0 48 -34 48 -69c0 -77 -72 -198 -168 -198c-44 0 -74 33 -74 86c0 117 123 286 228 286c59 0 111 -69 111 -144z" />
    <glyph glyph-name="multiply" unicode="&#xd7;" horiz-adv-x="303" 
d="M210 224l56 -116h-29l-47 96l-104 -96h-32l126 117l-59 122h30l49 -103l111 103h32z" />
    <glyph glyph-name="Ugrave" unicode="&#xd9;" horiz-adv-x="865" 
d="M562 779c38 0 86 -50 168 -93v-7c-85 44 -183 55 -183 89c0 7 8 11 15 11zM1543 423c0 -60 -71 -115 -151 -115c-218 0 -397 207 -397 207s-153 -114 -245 -270c-94 -159 -135 -247 -96 -247c60 0 111 70 111 70v-18s-46 -70 -126 -70c-39 0 -59 31 -59 99
c-59 -72 -103 -99 -142 -99c-42 0 -82 50 -82 107c0 136 198 290 198 380c0 103 -74 160 -182 160c-229 0 -358 -165 -358 -282c0 -84 73 -154 156 -154c51 0 117 13 163 39l3 -6c-42 -27 -97 -42 -166 -42c-92 0 -165 73 -165 163c0 122 127 291 367 291
c131 0 231 -77 231 -227c0 -60 -25 -87 -65 -141c-55 -74 -137 -169 -137 -230c0 -26 13 -47 37 -47c48 0 106 62 140 111c63 90 128 267 393 437c0 0 -130 97 -216 97h-54v6h46c108 0 155 -15 252 -91c134 51 164 64 279 64c162 0 265 -87 265 -192zM1533 423
c0 103 -105 182 -255 182c-126 0 -261 -71 -261 -71s210 -216 375 -216c78 0 141 56 141 105z" />
    <glyph glyph-name="Uacute" unicode="&#xda;" horiz-adv-x="865" 
d="M858 769c0 -34 -98 -45 -183 -89v7c82 43 130 93 168 93c7 0 15 -4 15 -11zM1543 423c0 -60 -71 -115 -151 -115c-218 0 -397 207 -397 207s-153 -114 -245 -270c-94 -159 -135 -247 -96 -247c60 0 111 70 111 70v-18s-46 -70 -126 -70c-39 0 -59 31 -59 99
c-59 -72 -103 -99 -142 -99c-42 0 -82 50 -82 107c0 136 198 290 198 380c0 103 -74 160 -182 160c-229 0 -358 -165 -358 -282c0 -84 73 -154 156 -154c51 0 117 13 163 39l3 -6c-42 -27 -97 -42 -166 -42c-92 0 -165 73 -165 163c0 122 127 291 367 291
c131 0 231 -77 231 -227c0 -60 -25 -87 -65 -141c-55 -74 -137 -169 -137 -230c0 -26 13 -47 37 -47c48 0 106 62 140 111c63 90 128 267 393 437c0 0 -130 97 -216 97h-54v6h46c108 0 155 -15 252 -91c134 51 164 64 279 64c162 0 265 -87 265 -192zM1533 423
c0 103 -105 182 -255 182c-126 0 -261 -71 -261 -71s210 -216 375 -216c78 0 141 56 141 105z" />
    <glyph glyph-name="Ucircumflex" unicode="&#xdb;" horiz-adv-x="865" 
d="M850 692c5 -5 2 -8 -6 -3c-28 19 -51 35 -74 52c-24 -15 -91 -41 -119 -56c-7 -4 -12 -1 -5 5c32 25 87 57 115 79c6 5 12 5 17 0c26 -28 52 -57 72 -77zM1543 423c0 -60 -71 -115 -151 -115c-218 0 -397 207 -397 207s-153 -114 -245 -270c-94 -159 -135 -247 -96 -247
c60 0 111 70 111 70v-18s-46 -70 -126 -70c-39 0 -59 31 -59 99c-59 -72 -103 -99 -142 -99c-42 0 -82 50 -82 107c0 136 198 290 198 380c0 103 -74 160 -182 160c-229 0 -358 -165 -358 -282c0 -84 73 -154 156 -154c51 0 117 13 163 39l3 -6c-42 -27 -97 -42 -166 -42
c-92 0 -165 73 -165 163c0 122 127 291 367 291c131 0 231 -77 231 -227c0 -60 -25 -87 -65 -141c-55 -74 -137 -169 -137 -230c0 -26 13 -47 37 -47c48 0 106 62 140 111c63 90 128 267 393 437c0 0 -130 97 -216 97h-54v6h46c108 0 155 -15 252 -91c134 51 164 64 279 64
c162 0 265 -87 265 -192zM1533 423c0 103 -105 182 -255 182c-126 0 -261 -71 -261 -71s210 -216 375 -216c78 0 141 56 141 105z" />
    <glyph glyph-name="Udieresis" unicode="&#xdc;" horiz-adv-x="865" 
d="M713 757c15 0 28 -14 24 -30c-3 -15 -21 -29 -36 -29c-18 0 -27 14 -24 29c3 16 20 30 36 30zM838 757c16 0 28 -14 24 -30c-3 -15 -20 -29 -36 -29c-17 0 -27 14 -24 29c3 16 20 30 36 30zM1543 423c0 -60 -71 -115 -151 -115c-218 0 -397 207 -397 207
s-153 -114 -245 -270c-94 -159 -135 -247 -96 -247c60 0 111 70 111 70v-18s-46 -70 -126 -70c-39 0 -59 31 -59 99c-59 -72 -103 -99 -142 -99c-42 0 -82 50 -82 107c0 136 198 290 198 380c0 103 -74 160 -182 160c-229 0 -358 -165 -358 -282c0 -84 73 -154 156 -154
c51 0 117 13 163 39l3 -6c-42 -27 -97 -42 -166 -42c-92 0 -165 73 -165 163c0 122 127 291 367 291c131 0 231 -77 231 -227c0 -60 -25 -87 -65 -141c-55 -74 -137 -169 -137 -230c0 -26 13 -47 37 -47c48 0 106 62 140 111c63 90 128 267 393 437c0 0 -130 97 -216 97h-54
v6h46c108 0 155 -15 252 -91c134 51 164 64 279 64c162 0 265 -87 265 -192zM1533 423c0 103 -105 182 -255 182c-126 0 -261 -71 -261 -71s210 -216 375 -216c78 0 141 56 141 105z" />
    <glyph glyph-name="Yacute" unicode="&#xdd;" horiz-adv-x="1049" 
d="M1123 769c0 -34 -98 -45 -183 -89v7c82 43 130 93 168 93c7 0 15 -4 15 -11zM1611 -96c0 -179 -147 -317 -331 -317c-152 0 -327 77 -507 248c-73 -146 -198 -253 -376 -253c-188 0 -314 108 -314 231c0 126 128 236 314 236c194 0 313 -142 368 -189c5 7 14 19 21 38
c14 30 27 92 48 202c-79 -95 -105 -113 -142 -113c-54 0 -89 50 -89 126c0 150 155 249 155 369c0 103 -78 149 -150 149c-51 0 -96 -9 -164 -41c0 0 5 -36 -7 -85c-8 -30 -17 -51 -33 -77l-8 2s24 46 32 76c10 47 7 80 7 80c-176 -104 -224 -104 -266 -104
c-87 0 -167 59 -167 129c0 78 61 134 234 134c153 0 188 -83 207 -144c55 21 79 37 165 37c114 0 205 -93 205 -205c0 -119 -97 -204 -143 -308c0 0 -37 -127 32 -127c92 0 155 219 227 336c99 160 240 327 438 327c208 0 189 -134 189 -134c-5 3 -8 6 -11 6
c-13 95 -92 120 -160 120c-162 0 -362 -213 -483 -517c-54 -141 -94 -224 -103 -247c-7 -17 -14 -32 -21 -44c10 -11 229 -247 502 -247c171 0 319 128 319 306c0 137 -115 246 -232 246c-101 0 -165 -61 -165 -140c0 -123 137 -132 137 -132c0 -5 -3 -11 -10 -11
c-78 0 -141 58 -141 143c0 92 77 156 179 156c133 0 244 -118 244 -262zM433 597c-21 81 -68 142 -197 142c-119 0 -227 -29 -227 -128c0 -70 77 -120 160 -120c68 0 149 40 264 106zM759 -150c-65 64 -180 189 -362 189c-177 0 -295 -100 -295 -226
c0 -101 142 -184 295 -184c248 0 349 197 362 221z" />
    <glyph glyph-name="germandbls" unicode="&#xdf;" horiz-adv-x="364" 
d="M387 218c-54 -92 -102 -163 -186 -178c-22 -34 -62 -56 -105 -56c-41 0 -80 23 -80 74c0 22 20 36 44 36c26 0 43 -15 67 -28c19 23 31 56 31 86c0 35 -9 53 -9 87c0 43 44 77 85 129s80 118 80 178c0 11 -2 24 -14 24c-51 0 -166 -233 -271 -460
c-100 -214 -186 -424 -329 -424c-55 0 -100 30 -100 90c0 48 38 92 88 92c25 0 53 -23 53 -47c0 -25 -20 -47 -47 -47c-21 0 -39 9 -45 31c16 -3 31 5 31 17c0 6 -7 12 -12 12c-30 0 -49 -38 -49 -70c0 -40 38 -64 77 -64c109 0 163 218 261 432c107 231 271 458 361 458
c21 0 46 -26 46 -52c0 -52 -53 -140 -108 -190c-40 -36 -74 -62 -74 -86c0 -54 38 -78 38 -160c0 -18 -4 -35 -12 -51c61 7 122 91 172 172zM118 57c-25 12 -40 27 -56 27c-7 0 -14 -8 -14 -16c0 -18 15 -28 30 -28c14 0 28 7 40 17z" />
    <glyph glyph-name="agrave" unicode="&#xe0;" horiz-adv-x="426" 
d="M449 218c-106 -130 -213 -233 -263 -233c-44 0 -60 24 -76 59c-35 -47 -65 -59 -95 -59c-39 0 -68 33 -68 99c0 90 93 216 224 216c21 0 36 -3 51 -24c0 0 11 15 21 15c12 0 30 -6 42 -6c8 0 22 23 33 27l-131 -246c-14 -26 -17 -35 -17 -46c0 -10 7 -20 22 -20
c37 0 162 120 249 225zM207 258c0 11 -7 24 -21 24c-87 0 -180 -193 -180 -249c0 -21 3 -33 20 -33c37 0 63 39 79 66c41 70 102 176 102 192zM99 459c38 0 86 -50 168 -93v-7c-85 44 -183 55 -183 89c0 7 8 11 15 11z" />
    <glyph glyph-name="aacute" unicode="&#xe1;" horiz-adv-x="426" 
d="M449 218c-106 -130 -213 -233 -263 -233c-44 0 -60 24 -76 59c-35 -47 -65 -59 -95 -59c-39 0 -68 33 -68 99c0 90 93 216 224 216c21 0 36 -3 51 -24c0 0 11 15 21 15c12 0 30 -6 42 -6c8 0 22 23 33 27l-131 -246c-14 -26 -17 -35 -17 -46c0 -10 7 -20 22 -20
c37 0 162 120 249 225zM207 258c0 11 -7 24 -21 24c-87 0 -180 -193 -180 -249c0 -21 3 -33 20 -33c37 0 63 39 79 66c41 70 102 176 102 192zM314 440c0 -34 -98 -45 -183 -89v7c82 43 130 93 168 93c7 0 15 -4 15 -11z" />
    <glyph glyph-name="acircumflex" unicode="&#xe2;" horiz-adv-x="426" 
d="M449 218c-106 -130 -213 -233 -263 -233c-44 0 -60 24 -76 59c-35 -47 -65 -59 -95 -59c-39 0 -68 33 -68 99c0 90 93 216 224 216c21 0 36 -3 51 -24c0 0 11 15 21 15c12 0 30 -6 42 -6c8 0 22 23 33 27l-131 -246c-14 -26 -17 -35 -17 -46c0 -10 7 -20 22 -20
c37 0 162 120 249 225zM207 258c0 11 -7 24 -21 24c-87 0 -180 -193 -180 -249c0 -21 3 -33 20 -33c37 0 63 39 79 66c41 70 102 176 102 192zM313 383c5 -5 2 -8 -6 -3c-28 19 -51 35 -74 52c-24 -15 -91 -41 -119 -56c-7 -4 -12 -1 -5 5c32 25 87 57 115 79c6 5 12 5 17 0
c26 -28 52 -57 72 -77z" />
    <glyph glyph-name="atilde" unicode="&#xe3;" horiz-adv-x="426" 
d="M449 218c-106 -130 -213 -233 -263 -233c-44 0 -60 24 -76 59c-35 -47 -65 -59 -95 -59c-39 0 -68 33 -68 99c0 90 93 216 224 216c21 0 36 -3 51 -24c0 0 11 15 21 15c12 0 30 -6 42 -6c8 0 22 23 33 27l-131 -246c-14 -26 -17 -35 -17 -46c0 -10 7 -20 22 -20
c37 0 162 120 249 225zM207 258c0 11 -7 24 -21 24c-87 0 -180 -193 -180 -249c0 -21 3 -33 20 -33c37 0 63 39 79 66c41 70 102 176 102 192zM349 418c-11 -33 -37 -51 -67 -51c-33 0 -54 8 -84 8c-20 0 -35 -5 -55 -9c16 33 48 49 82 49c21 0 42 -6 69 -6c23 0 35 5 55 9z
" />
    <glyph glyph-name="adieresis" unicode="&#xe4;" horiz-adv-x="426" 
d="M449 218c-106 -130 -213 -233 -263 -233c-44 0 -60 24 -76 59c-35 -47 -65 -59 -95 -59c-39 0 -68 33 -68 99c0 90 93 216 224 216c21 0 36 -3 51 -24c0 0 11 15 21 15c12 0 30 -6 42 -6c8 0 22 23 33 27l-131 -246c-14 -26 -17 -35 -17 -46c0 -10 7 -20 22 -20
c37 0 162 120 249 225zM207 258c0 11 -7 24 -21 24c-87 0 -180 -193 -180 -249c0 -21 3 -33 20 -33c37 0 63 39 79 66c41 70 102 176 102 192zM179 433c15 0 28 -14 24 -30c-3 -15 -21 -29 -36 -29c-18 0 -27 14 -24 29c3 16 20 30 36 30zM304 433c16 0 28 -14 24 -30
c-3 -15 -20 -29 -36 -29c-17 0 -27 14 -24 29c3 16 20 30 36 30z" />
    <glyph glyph-name="aring" unicode="&#xe5;" horiz-adv-x="426" 
d="M449 218c-106 -130 -213 -233 -263 -233c-44 0 -60 24 -76 59c-35 -47 -65 -59 -95 -59c-39 0 -68 33 -68 99c0 90 93 216 224 216c21 0 36 -3 51 -24c0 0 11 15 21 15c12 0 30 -6 42 -6c8 0 22 23 33 27l-131 -246c-14 -26 -17 -35 -17 -46c0 -10 7 -20 22 -20
c37 0 162 120 249 225zM207 258c0 11 -7 24 -21 24c-87 0 -180 -193 -180 -249c0 -21 3 -33 20 -33c37 0 63 39 79 66c41 70 102 176 102 192zM330 427c-6 -33 -29 -55 -64 -55c-30 0 -40 22 -35 55c5 31 29 57 63 57c31 0 42 -26 36 -57zM314 427c6 26 -7 40 -24 40
c-24 0 -34 -14 -40 -40c-5 -25 1 -38 21 -38s37 13 43 38z" />
    <glyph glyph-name="ae" unicode="&#xe6;" horiz-adv-x="503" 
d="M207 258c0 11 -7 24 -21 24c-87 0 -180 -193 -180 -249c0 -21 3 -33 20 -33c37 0 63 39 79 66c41 70 102 176 102 192zM379 264c0 15 -7 23 -21 23c-29 0 -75 -54 -126 -155c56 0 147 95 147 132zM526 218l-1 1c-30 -50 -183 -233 -295 -233c-44 0 -73 27 -83 61
c-36 -45 -103 -61 -132 -61c-39 0 -68 33 -68 99c0 90 93 216 224 216c21 0 36 -3 51 -24c0 0 11 20 21 20h62c3 0 -1 -7 -7 -15c28 12 54 18 74 18c31 0 57 -24 57 -55c0 -98 -173 -137 -207 -137c-11 -24 -18 -36 -18 -70c0 -21 7 -37 27 -37c100 0 251 164 287 224z" />
    <glyph glyph-name="ccedilla" unicode="&#xe7;" horiz-adv-x="388" 
d="M73 -84c0 -26 -30 -46 -58 -46c-24 0 -37 4 -60 16c-13 7 -2 17 9 11c9 -5 71 -18 71 17c0 18 -31 14 -50 12l8 26c9 4 19 6 29 6l14 28c-61 3 -89 37 -89 89c0 150 129 225 226 225c34 0 60 -24 60 -52c0 -30 -29 -59 -60 -59c-24 0 -36 11 -36 26c0 7 1 21 10 34
c11 -9 21 -13 29 -13c7 0 31 16 31 33c0 12 -9 21 -34 21c-64 0 -170 -186 -170 -255c0 -23 20 -38 45 -38c86 0 229 56 355 228l8 -7c-112 -156 -246 -229 -355 -233l-19 -29c20 -4 36 -18 36 -40z" />
    <glyph glyph-name="egrave" unicode="&#xe8;" horiz-adv-x="307" 
d="M330 218c-30 -50 -183 -233 -295 -233c-56 0 -88 44 -88 90c0 139 154 225 229 225c31 0 57 -24 57 -55c0 -98 -173 -137 -207 -137c-11 -24 -18 -36 -18 -70c0 -21 7 -37 27 -37c100 0 251 164 287 224zM183 264c0 15 -7 23 -21 23c-29 0 -75 -54 -126 -155
c56 0 147 95 147 132zM46 459c38 0 86 -50 168 -93v-7c-85 44 -183 55 -183 89c0 7 8 11 15 11z" />
    <glyph glyph-name="eacute" unicode="&#xe9;" horiz-adv-x="307" 
d="M330 218c-30 -50 -183 -233 -295 -233c-56 0 -88 44 -88 90c0 139 154 225 229 225c31 0 57 -24 57 -55c0 -98 -173 -137 -207 -137c-11 -24 -18 -36 -18 -70c0 -21 7 -37 27 -37c100 0 251 164 287 224zM183 264c0 15 -7 23 -21 23c-29 0 -75 -54 -126 -155
c56 0 147 95 147 132zM279 440c0 -34 -98 -45 -183 -89v7c82 43 130 93 168 93c7 0 15 -4 15 -11z" />
    <glyph glyph-name="ecircumflex" unicode="&#xea;" horiz-adv-x="307" 
d="M330 218c-30 -50 -183 -233 -295 -233c-56 0 -88 44 -88 90c0 139 154 225 229 225c31 0 57 -24 57 -55c0 -98 -173 -137 -207 -137c-11 -24 -18 -36 -18 -70c0 -21 7 -37 27 -37c100 0 251 164 287 224zM183 264c0 15 -7 23 -21 23c-29 0 -75 -54 -126 -155
c56 0 147 95 147 132zM270 383c5 -5 2 -8 -6 -3c-28 19 -51 35 -74 52c-24 -15 -91 -41 -119 -56c-7 -4 -12 -1 -5 5c32 25 87 57 115 79c6 5 12 5 17 0c26 -28 52 -57 72 -77z" />
    <glyph glyph-name="edieresis" unicode="&#xeb;" horiz-adv-x="307" 
d="M330 218c-30 -50 -183 -233 -295 -233c-56 0 -88 44 -88 90c0 139 154 225 229 225c31 0 57 -24 57 -55c0 -98 -173 -137 -207 -137c-11 -24 -18 -36 -18 -70c0 -21 7 -37 27 -37c100 0 251 164 287 224zM183 264c0 15 -7 23 -21 23c-29 0 -75 -54 -126 -155
c56 0 147 95 147 132zM135 433c15 0 28 -14 24 -30c-3 -15 -21 -29 -36 -29c-18 0 -27 14 -24 29c3 16 20 30 36 30zM260 433c16 0 28 -14 24 -30c-3 -15 -20 -29 -36 -29c-17 0 -27 14 -24 29c3 16 20 30 36 30z" />
    <glyph glyph-name="igrave" unicode="&#xec;" horiz-adv-x="235" 
d="M258 218c-79 -94 -200 -233 -264 -233c-35 0 -62 21 -62 60c0 68 65 161 100 225c7 13 9 21 27 21c30 0 20 -9 34 -9c8 0 26 27 38 30l-127 -242c-8 -15 -10 -31 -10 -38c0 -14 8 -26 24 -26c38 0 208 190 232 219zM30 459c38 0 86 -50 168 -93v-7
c-85 44 -183 55 -183 89c0 7 8 11 15 11z" />
    <glyph glyph-name="iacute" unicode="&#xed;" horiz-adv-x="235" 
d="M258 218c-79 -94 -200 -233 -264 -233c-35 0 -62 21 -62 60c0 68 65 161 100 225c7 13 9 21 27 21c30 0 20 -9 34 -9c8 0 26 27 38 30l-127 -242c-8 -15 -10 -31 -10 -38c0 -14 8 -26 24 -26c38 0 208 190 232 219zM206 440c0 -34 -98 -45 -183 -89v7
c82 43 130 93 168 93c7 0 15 -4 15 -11z" />
    <glyph glyph-name="icircumflex" unicode="&#xee;" horiz-adv-x="235" 
d="M258 218c-79 -94 -200 -233 -264 -233c-35 0 -62 21 -62 60c0 68 65 161 100 225c7 13 9 21 27 21c30 0 20 -9 34 -9c8 0 26 27 38 30l-127 -242c-8 -15 -10 -31 -10 -38c0 -14 8 -26 24 -26c38 0 208 190 232 219zM222 383c5 -5 2 -8 -6 -3c-28 19 -51 35 -74 52
c-24 -15 -91 -41 -119 -56c-7 -4 -12 -1 -5 5c32 25 87 57 115 79c6 5 12 5 17 0c26 -28 52 -57 72 -77z" />
    <glyph glyph-name="idieresis" unicode="&#xef;" horiz-adv-x="235" 
d="M258 218c-79 -94 -200 -233 -264 -233c-35 0 -62 21 -62 60c0 68 65 161 100 225c7 13 9 21 27 21c30 0 20 -9 34 -9c8 0 26 27 38 30l-127 -242c-8 -15 -10 -31 -10 -38c0 -14 8 -26 24 -26c38 0 208 190 232 219zM73 433c15 0 28 -14 24 -30c-3 -15 -21 -29 -36 -29
c-18 0 -27 14 -24 29c3 16 20 30 36 30zM198 433c16 0 28 -14 24 -30c-3 -15 -20 -29 -36 -29c-17 0 -27 14 -24 29c3 16 20 30 36 30z" />
    <glyph glyph-name="ntilde" unicode="&#xf1;" horiz-adv-x="385" 
d="M408 218c-22 -26 -154 -173 -154 -173c-29 -33 -58 -61 -101 -61c-38 0 -55 27 -58 61c-1 15 -1 28 21 61l83 127c9 14 14 25 14 30c0 6 -4 9 -15 9c-28 0 -101 -50 -174 -173c-32 -53 -49 -105 -72 -105c-13 0 -26 9 -37 9c-9 0 -37 -30 -37 -30l154 294
c8 15 14 24 30 24c18 0 21 -8 35 -8c9 0 21 22 37 29l-51 -96c66 58 106 84 150 84c28 0 46 -18 46 -46c0 -18 -5 -32 -19 -54l-93 -145c-10 -15 -18 -28 -18 -34c0 -12 6 -18 21 -18c19 0 50 24 83 60l147 162zM322 418c-11 -33 -37 -51 -67 -51c-33 0 -54 8 -84 8
c-20 0 -35 -5 -55 -9c16 33 48 49 82 49c21 0 42 -6 69 -6c23 0 35 5 55 9z" />
    <glyph glyph-name="ograve" unicode="&#xf2;" horiz-adv-x="376" 
d="M399 218c-36 -35 -105 -87 -180 -90c-20 -50 -119 -143 -230 -143c-31 0 -55 30 -55 57c0 32 13 75 29 104l72 131c7 13 17 14 22 14c17 0 26 -8 37 -8c8 0 18 22 35 28l-119 -228c-12 -23 -15 -38 -15 -45c0 -24 14 -38 32 -38c42 0 85 46 130 141c-27 31 -32 55 -32 73
c0 54 43 94 73 94c29 0 57 -39 57 -77c0 -36 -18 -76 -28 -90c37 0 99 27 164 84zM207 240c0 20 -4 45 -24 45c-25 0 -46 -40 -46 -72c0 -25 13 -42 28 -60c0 0 42 71 42 87zM73 459c38 0 86 -50 168 -93v-7c-85 44 -183 55 -183 89c0 7 8 11 15 11z" />
    <glyph glyph-name="oacute" unicode="&#xf3;" horiz-adv-x="376" 
d="M399 218c-36 -35 -105 -87 -180 -90c-20 -50 -119 -143 -230 -143c-31 0 -55 30 -55 57c0 32 13 75 29 104l72 131c7 13 17 14 22 14c17 0 26 -8 37 -8c8 0 18 22 35 28l-119 -228c-12 -23 -15 -38 -15 -45c0 -24 14 -38 32 -38c42 0 85 46 130 141c-27 31 -32 55 -32 73
c0 54 43 94 73 94c29 0 57 -39 57 -77c0 -36 -18 -76 -28 -90c37 0 99 27 164 84zM207 240c0 20 -4 45 -24 45c-25 0 -46 -40 -46 -72c0 -25 13 -42 28 -60c0 0 42 71 42 87zM292 440c0 -34 -98 -45 -183 -89v7c82 43 130 93 168 93c7 0 15 -4 15 -11z" />
    <glyph glyph-name="ocircumflex" unicode="&#xf4;" horiz-adv-x="376" 
d="M399 218c-36 -35 -105 -87 -180 -90c-20 -50 -119 -143 -230 -143c-31 0 -55 30 -55 57c0 32 13 75 29 104l72 131c7 13 17 14 22 14c17 0 26 -8 37 -8c8 0 18 22 35 28l-119 -228c-12 -23 -15 -38 -15 -45c0 -24 14 -38 32 -38c42 0 85 46 130 141c-27 31 -32 55 -32 73
c0 54 43 94 73 94c29 0 57 -39 57 -77c0 -36 -18 -76 -28 -90c37 0 99 27 164 84zM207 240c0 20 -4 45 -24 45c-25 0 -46 -40 -46 -72c0 -25 13 -42 28 -60c0 0 42 71 42 87zM282 383c5 -5 2 -8 -6 -3c-28 19 -51 35 -74 52c-24 -15 -91 -41 -119 -56c-7 -4 -12 -1 -5 5
c32 25 87 57 115 79c6 5 12 5 17 0c26 -28 52 -57 72 -77z" />
    <glyph glyph-name="otilde" unicode="&#xf5;" horiz-adv-x="376" 
d="M399 218c-36 -35 -105 -87 -180 -90c-20 -50 -119 -143 -230 -143c-31 0 -55 30 -55 57c0 32 13 75 29 104l72 131c7 13 17 14 22 14c17 0 26 -8 37 -8c8 0 18 22 35 28l-119 -228c-12 -23 -15 -38 -15 -45c0 -24 14 -38 32 -38c42 0 85 46 130 141c-27 31 -32 55 -32 73
c0 54 43 94 73 94c29 0 57 -39 57 -77c0 -36 -18 -76 -28 -90c37 0 99 27 164 84zM207 240c0 20 -4 45 -24 45c-25 0 -46 -40 -46 -72c0 -25 13 -42 28 -60c0 0 42 71 42 87zM300 418c-11 -33 -37 -51 -67 -51c-33 0 -54 8 -84 8c-20 0 -35 -5 -55 -9c16 33 48 49 82 49
c21 0 42 -6 69 -6c23 0 35 5 55 9z" />
    <glyph glyph-name="odieresis" unicode="&#xf6;" horiz-adv-x="376" 
d="M399 218c-36 -35 -105 -87 -180 -90c-20 -50 -119 -143 -230 -143c-31 0 -55 30 -55 57c0 32 13 75 29 104l72 131c7 13 17 14 22 14c17 0 26 -8 37 -8c8 0 18 22 35 28l-119 -228c-12 -23 -15 -38 -15 -45c0 -24 14 -38 32 -38c42 0 85 46 130 141c-27 31 -32 55 -32 73
c0 54 43 94 73 94c29 0 57 -39 57 -77c0 -36 -18 -76 -28 -90c37 0 99 27 164 84zM207 240c0 20 -4 45 -24 45c-25 0 -46 -40 -46 -72c0 -25 13 -42 28 -60c0 0 42 71 42 87zM141 433c15 0 28 -14 24 -30c-3 -15 -21 -29 -36 -29c-18 0 -27 14 -24 29c3 16 20 30 36 30z
M266 433c16 0 28 -14 24 -30c-3 -15 -20 -29 -36 -29c-17 0 -27 14 -24 29c3 16 20 30 36 30z" />
    <glyph glyph-name="divide" unicode="&#xf7;" horiz-adv-x="303" 
d="M251 315c-8 -20 -29 -36 -49 -36s-31 16 -23 36c7 20 29 36 49 36s30 -16 23 -36zM301 240l-9 -25h-228l9 25h228zM187 140c-7 -20 -29 -36 -49 -36s-30 16 -23 36s29 36 49 36s30 -16 23 -36z" />
    <glyph glyph-name="oslash" unicode="&#xf8;" horiz-adv-x="369" 
d="M392 218v-1c-24 -29 -71 -63 -123 -92c-18 -7 -30 -12 -45 -15c-24 -40 -104 -126 -198 -126c-6 0 -12 1 -17 2l-36 -50h-32l44 62c-23 18 -36 49 -36 79c0 114 116 222 227 222c8 0 16 -1 23 -3l32 45h32l-41 -57c21 -16 35 -44 35 -78c0 -35 -17 -62 -24 -80
c10 2 19 6 30 11c54 25 95 63 121 88zM129 199l61 84c-4 3 -9 5 -16 5c-60 0 -166 -187 -166 -256v-3l90 126c-2 4 -3 8 -3 12c0 21 15 32 31 32h3zM126 149h-1c9 -11 24 -19 33 -21c27 57 37 89 39 119l-50 -69v0c0 -8 -6 -13 -12 -16zM115 135l-96 -135c2 -1 5 -2 8 -2
c37 0 72 34 124 121c-15 5 -27 10 -36 16z" />
    <glyph glyph-name="ugrave" unicode="&#xf9;" horiz-adv-x="415" 
d="M438 218c-40 -60 -169 -233 -277 -233c-32 0 -54 26 -59 84c-52 -59 -69 -84 -123 -84c-41 0 -51 34 -51 50c0 28 5 56 33 106l75 136c8 14 17 14 27 14c8 0 20 -7 33 -7c9 0 25 25 36 28l-119 -224c-14 -26 -18 -49 -18 -56c0 -14 7 -26 26 -26c14 0 77 62 117 133
l78 139c5 9 12 13 23 13c15 0 21 -7 36 -7c9 0 23 23 36 28l-127 -239c-12 -22 -16 -31 -16 -44c0 -12 8 -20 26 -20c45 0 149 95 236 216zM99 459c38 0 86 -50 168 -93v-7c-85 44 -183 55 -183 89c0 7 8 11 15 11z" />
    <glyph glyph-name="uacute" unicode="&#xfa;" horiz-adv-x="415" 
d="M438 218c-40 -60 -169 -233 -277 -233c-32 0 -54 26 -59 84c-52 -59 -69 -84 -123 -84c-41 0 -51 34 -51 50c0 28 5 56 33 106l75 136c8 14 17 14 27 14c8 0 20 -7 33 -7c9 0 25 25 36 28l-119 -224c-14 -26 -18 -49 -18 -56c0 -14 7 -26 26 -26c14 0 77 62 117 133
l78 139c5 9 12 13 23 13c15 0 21 -7 36 -7c9 0 23 23 36 28l-127 -239c-12 -22 -16 -31 -16 -44c0 -12 8 -20 26 -20c45 0 149 95 236 216zM314 440c0 -34 -98 -45 -183 -89v7c82 43 130 93 168 93c7 0 15 -4 15 -11z" />
    <glyph glyph-name="ucircumflex" unicode="&#xfb;" horiz-adv-x="415" 
d="M438 218c-40 -60 -169 -233 -277 -233c-32 0 -54 26 -59 84c-52 -59 -69 -84 -123 -84c-41 0 -51 34 -51 50c0 28 5 56 33 106l75 136c8 14 17 14 27 14c8 0 20 -7 33 -7c9 0 25 25 36 28l-119 -224c-14 -26 -18 -49 -18 -56c0 -14 7 -26 26 -26c14 0 77 62 117 133
l78 139c5 9 12 13 23 13c15 0 21 -7 36 -7c9 0 23 23 36 28l-127 -239c-12 -22 -16 -31 -16 -44c0 -12 8 -20 26 -20c45 0 149 95 236 216zM313 383c5 -5 2 -8 -6 -3c-28 19 -51 35 -74 52c-24 -15 -91 -41 -119 -56c-7 -4 -12 -1 -5 5c32 25 87 57 115 79c6 5 12 5 17 0
c26 -28 52 -57 72 -77z" />
    <glyph glyph-name="udieresis" unicode="&#xfc;" horiz-adv-x="415" 
d="M438 218c-40 -60 -169 -233 -277 -233c-32 0 -54 26 -59 84c-52 -59 -69 -84 -123 -84c-41 0 -51 34 -51 50c0 28 5 56 33 106l75 136c8 14 17 14 27 14c8 0 20 -7 33 -7c9 0 25 25 36 28l-119 -224c-14 -26 -18 -49 -18 -56c0 -14 7 -26 26 -26c14 0 77 62 117 133
l78 139c5 9 12 13 23 13c15 0 21 -7 36 -7c9 0 23 23 36 28l-127 -239c-12 -22 -16 -31 -16 -44c0 -12 8 -20 26 -20c45 0 149 95 236 216zM179 433c15 0 28 -14 24 -30c-3 -15 -21 -29 -36 -29c-18 0 -27 14 -24 29c3 16 20 30 36 30zM304 433c16 0 28 -14 24 -30
c-3 -15 -20 -29 -36 -29c-17 0 -27 14 -24 29c3 16 20 30 36 30z" />
    <glyph glyph-name="yacute" unicode="&#xfd;" horiz-adv-x="382" 
d="M405 218l-132 -126c-58 -54 -83 -87 -163 -131c-54 -93 -108 -260 -229 -260c-45 0 -81 32 -81 77c0 89 127 137 239 172l42 85c-42 -32 -76 -50 -99 -50c-32 0 -53 26 -53 68c0 10 5 40 17 62l82 152c6 12 19 24 28 24c20 0 25 -8 39 -8c9 0 24 25 36 29l-122 -228
c-16 -30 -17 -35 -17 -49c0 -15 4 -28 15 -28c12 0 75 24 102 72l105 188c6 11 13 24 28 24c21 0 21 -8 36 -8c8 0 25 25 37 29c-19 -34 -92 -192 -196 -336c70 43 97 80 146 125l132 124zM36 -60c-109 -37 -228 -81 -228 -161c0 -25 18 -42 42 -42c47 0 82 34 186 203z
M292 440c0 -34 -98 -45 -183 -89v7c82 43 130 93 168 93c7 0 15 -4 15 -11z" />
    <glyph glyph-name="ydieresis" unicode="&#xff;" horiz-adv-x="382" 
d="M405 218l-132 -126c-58 -54 -83 -87 -163 -131c-54 -93 -108 -260 -229 -260c-45 0 -81 32 -81 77c0 89 127 137 239 172l42 85c-42 -32 -76 -50 -99 -50c-32 0 -53 26 -53 68c0 10 5 40 17 62l82 152c6 12 19 24 28 24c20 0 25 -8 39 -8c9 0 24 25 36 29l-122 -228
c-16 -30 -17 -35 -17 -49c0 -15 4 -28 15 -28c12 0 75 24 102 72l105 188c6 11 13 24 28 24c21 0 21 -8 36 -8c8 0 25 25 37 29c-19 -34 -92 -192 -196 -336c70 43 97 80 146 125l132 124zM36 -60c-109 -37 -228 -81 -228 -161c0 -25 18 -42 42 -42c47 0 82 34 186 203z
M179 433c15 0 28 -14 24 -30c-3 -15 -21 -29 -36 -29c-18 0 -27 14 -24 29c3 16 20 30 36 30zM304 433c16 0 28 -14 24 -30c-3 -15 -20 -29 -36 -29c-17 0 -27 14 -24 29c3 16 20 30 36 30z" />
    <glyph glyph-name="OE" unicode="&#x152;" horiz-adv-x="1030" 
d="M718 476h-1c32 -15 60 -28 105 -28c56 0 122 39 122 95c0 46 -41 85 -90 85c-92 -1 -133 -78 -136 -152zM636 505l-1 -2c0 90 83 159 186 158c74 -1 134 -56 134 -120c0 -56 -62 -107 -134 -107c-40 0 -70 11 -105 24c1 -31 8 -60 21 -82c9 -12 38 -14 39 -33
c0 -8 -4 -11 -12 -12c-21 -3 -40 23 -40 23c-73 44 -207 -39 -207 -173c0 -108 71 -197 161 -197c123 0 227 102 227 221c0 63 -35 106 -88 106c-83 0 -163 -87 -163 -158c0 -46 31 -80 70 -80c100 0 105 133 105 165h12c3 -50 -10 -179 -117 -179c-48 0 -84 42 -84 94
c0 81 88 172 177 172c60 0 102 -50 102 -120c0 -132 -115 -239 -241 -239c-142 0 -228 70 -250 169c-82 -100 -183 -161 -272 -161c-93 0 -158 82 -158 182c0 116 84 270 207 386c63 54 122 88 171 94h42c-94 -46 -121 -70 -181 -151c-108 -153 -165 -290 -165 -405
c0 -60 36 -100 84 -100c76 0 168 86 249 233c73 132 108 237 108 315c0 56 -17 81 -56 81c-89 0 -217 -153 -217 -277c0 -47 27 -75 63 -75c95 0 157 135 157 187c0 34 -20 59 -37 59c-9 0 -31 -5 -58 -36l-7 7c29 29 47 39 65 39c28 0 48 -34 48 -69
c0 -77 -72 -198 -168 -198c-44 0 -74 33 -74 86c0 117 123 286 228 286c59 0 111 -69 111 -144c0 -21 -5 -51 -14 -84c33 13 72 19 117 16c-19 28 -35 72 -35 99z" />
    <glyph glyph-name="oe" unicode="&#x153;" horiz-adv-x="514" 
d="M389 264c0 15 -7 23 -21 23c-29 0 -75 -54 -126 -155c56 0 147 95 147 132zM536 218h-1c-30 -50 -183 -233 -295 -233c-41 0 -69 24 -81 55c-35 -31 -79 -55 -133 -55c-47 0 -77 48 -77 93c0 114 116 222 227 222c33 0 60 -21 73 -53c46 34 98 53 133 53
c31 0 57 -24 57 -55c0 -98 -173 -137 -207 -137c-11 -24 -18 -36 -18 -70c0 -21 7 -37 27 -37c100 0 251 164 287 224zM159 133c31 66 37 95 37 130c0 16 -8 25 -24 25c-60 0 -166 -187 -166 -256c0 -23 5 -34 19 -34c36 0 74 36 125 120c-40 13 -56 31 -56 50
c0 21 15 32 31 32c12 0 21 -6 21 -21c0 -18 -27 -20 -27 -20c5 -15 29 -24 40 -26z" />
    <glyph glyph-name="Scaron" unicode="&#x160;" horiz-adv-x="710" 
d="M614 781c-5 5 -2 8 6 3c28 -19 51 -35 74 -52c24 15 91 41 119 56c7 4 12 1 5 -5c-32 -25 -87 -57 -115 -79c-6 -5 -12 -5 -17 0c-26 28 -52 57 -72 77zM696 616c0 -68 -120 -180 -122 -180c0 0 24 -148 24 -205c0 -132 -115 -242 -252 -242c-132 0 -223 107 -223 221
c0 97 61 165 69 175c-19 27 -22 38 -29 62c-34 -18 -150 -94 -150 -275c0 -173 141 -321 317 -321c123 0 219 87 219 87v-8s-83 -90 -219 -90c-186 0 -328 161 -328 332c0 195 127 266 159 287c-2 148 169 252 311 252c108 0 140 -53 140 -53s19 17 48 12
c24 -4 36 -28 36 -54zM610 642c-18 -23 -39 -45 -39 -101c27 3 61 60 39 101zM669 624c0 21 -11 34 -26 34c-10 0 -21 -8 -24 -10c30 -51 -12 -112 -48 -120l2 -75c60 55 96 115 96 171zM604 654c0 0 -37 49 -132 49c-105 0 -296 -83 -300 -241c0 0 60 48 180 63
c95 12 179 13 198 13c0 43 26 102 54 116zM549 528c0 0 -123 -3 -192 -12c-128 -17 -168 -57 -184 -64c3 -12 12 -41 28 -59c0 0 54 48 132 48c55 0 81 -15 124 -60c37 16 87 51 87 51zM445 375c0 0 -39 57 -112 57c-83 0 -125 -48 -125 -48s27 -41 122 -41
c61 0 115 32 115 32zM543 369v48s-39 -29 -80 -47c0 0 20 -34 20 -85c0 -54 -68 -120 -137 -120c-42 0 -76 31 -76 70c0 38 28 69 63 69c18 0 28 -9 45 -37c-39 -3 -56 -15 -56 -36c0 -24 18 -42 45 -42c53 0 102 54 102 112c0 32 -16 63 -16 63s-63 -31 -123 -31
c-102 0 -132 43 -132 43s-68 -78 -65 -166c2 -48 41 -192 174 -192c156 0 236 223 236 351z" />
    <glyph glyph-name="scaron" unicode="&#x161;" horiz-adv-x="247" 
d="M32 450c-5 5 -2 8 6 3c28 -19 51 -35 74 -52c24 15 91 41 119 56c7 4 12 1 5 -5c-32 -25 -87 -57 -115 -79c-6 -5 -12 -5 -17 0c-26 28 -52 57 -72 77zM270 218c-93 -155 -156 -171 -217 -180c-23 -27 -62 -55 -112 -55c-52 0 -79 28 -79 71c0 29 19 56 48 56
c28 0 50 -36 71 -44c27 19 38 66 38 88c0 23 -19 57 -19 97c0 42 16 96 53 96c15 0 25 -6 25 -18c0 -30 -18 -54 -31 -77c0 0 30 -66 30 -109c0 -35 -11 -80 -18 -91c67 15 117 32 203 173zM66 327c0 5 -3 12 -12 11c-7 0 -18 -19 -19 -42c0 -10 1 -22 6 -32
c21 30 25 45 25 63zM-29 56c-24 11 -37 36 -54 36c-10 0 -18 -9 -18 -20c0 -18 15 -25 32 -28c16 -3 34 1 40 12z" />
    <glyph glyph-name="Ydieresis" unicode="&#x178;" horiz-adv-x="1049" 
d="M991 757c15 0 28 -14 24 -30c-3 -15 -21 -29 -36 -29c-18 0 -27 14 -24 29c3 16 20 30 36 30zM1116 757c16 0 28 -14 24 -30c-3 -15 -20 -29 -36 -29c-17 0 -27 14 -24 29c3 16 20 30 36 30zM1611 -96c0 -179 -147 -317 -331 -317c-152 0 -327 77 -507 248
c-73 -146 -198 -253 -376 -253c-188 0 -314 108 -314 231c0 126 128 236 314 236c194 0 313 -142 368 -189c5 7 14 19 21 38c14 30 27 92 48 202c-79 -95 -105 -113 -142 -113c-54 0 -89 50 -89 126c0 150 155 249 155 369c0 103 -78 149 -150 149c-51 0 -96 -9 -164 -41
c0 0 5 -36 -7 -85c-8 -30 -17 -51 -33 -77l-8 2s24 46 32 76c10 47 7 80 7 80c-176 -104 -224 -104 -266 -104c-87 0 -167 59 -167 129c0 78 61 134 234 134c153 0 188 -83 207 -144c55 21 79 37 165 37c114 0 205 -93 205 -205c0 -119 -97 -204 -143 -308
c0 0 -37 -127 32 -127c92 0 155 219 227 336c99 160 240 327 438 327c208 0 189 -134 189 -134c-5 3 -8 6 -11 6c-13 95 -92 120 -160 120c-162 0 -362 -213 -483 -517c-54 -141 -94 -224 -103 -247c-7 -17 -14 -32 -21 -44c10 -11 229 -247 502 -247c171 0 319 128 319 306
c0 137 -115 246 -232 246c-101 0 -165 -61 -165 -140c0 -123 137 -132 137 -132c0 -5 -3 -11 -10 -11c-78 0 -141 58 -141 143c0 92 77 156 179 156c133 0 244 -118 244 -262zM433 597c-21 81 -68 142 -197 142c-119 0 -227 -29 -227 -128c0 -70 77 -120 160 -120
c68 0 149 40 264 106zM759 -150c-65 64 -180 189 -362 189c-177 0 -295 -100 -295 -226c0 -101 142 -184 295 -184c248 0 349 197 362 221z" />
    <glyph glyph-name="Zcaron" unicode="&#x17d;" horiz-adv-x="676" 
d="M570 781c-5 5 -2 8 6 3c28 -19 51 -35 74 -52c24 15 91 41 119 56c7 4 12 1 5 -5c-32 -25 -87 -57 -115 -79c-6 -5 -12 -5 -17 0c-26 28 -52 57 -72 77zM707 499c0 -142 -125 -272 -366 -441c0 0 41 -15 57 -54c6 -13 14 -41 15 -68l69 -16l-1 -9l-67 13
c-25 -169 -216 -289 -337 -289c-79 0 -147 30 -147 97c0 112 182 213 326 213c28 0 78 2 96 2c5 14 10 24 10 41c0 30 -21 60 -36 60c0 0 -118 -62 -153 -62c-32 0 -39 14 -39 28c0 26 21 32 38 38c49 17 130 18 130 18c81 81 305 293 305 465c0 70 -45 116 -108 116
c-30 0 -96 -21 -128 -42c0 0 72 -35 72 -116c0 -144 -109 -334 -235 -334c-63 0 -116 55 -116 124c0 173 254 320 254 323c0 0 -39 7 -123 -21c-90 -30 -170 -116 -212 -237c-9 9 -6 -6 -7 4c60 170 181 230 213 240c90 29 116 26 139 22c41 22 94 48 164 47
c105 -2 187 -73 187 -162zM434 493c0 84 -76 110 -76 110s-257 -160 -257 -320c0 -60 50 -115 107 -115c114 0 226 180 226 325zM278 52c0 2 -49 1 -75 -4c-24 -5 -51 -10 -51 -35c0 -10 10 -15 19 -15c30 0 107 54 107 54zM348 -65c-34 2 -53 2 -77 2
c-196 0 -334 -124 -334 -205c0 -27 21 -48 53 -48c129 0 326 110 358 251z" />
    <glyph glyph-name="zcaron" unicode="&#x17e;" horiz-adv-x="312" 
d="M89 440c-5 5 -2 8 6 3c28 -19 51 -35 74 -52c24 15 91 41 119 56c7 4 12 1 5 -5c-32 -25 -87 -57 -115 -79c-6 -5 -12 -5 -17 0c-26 28 -52 57 -72 77zM335 218c-29 -45 -128 -191 -275 -262c5 -20 5 -45 5 -65c0 -115 -109 -236 -247 -236c-49 0 -81 28 -81 75
c0 92 134 179 274 217c0 9 4 30 -6 56c-21 -8 -41 -14 -56 -14c-25 0 -36 9 -36 25c0 13 17 27 40 27c25 0 40 -4 65 -18c24 20 89 117 89 187c0 20 -12 35 -36 35c-11 0 -42 -18 -71 -59v17c23 45 62 97 116 97c39 0 67 -34 67 -73c0 -114 -117 -202 -156 -215
c6 -7 24 -34 27 -46c88 43 170 114 273 259zM-2 13c-13 10 -30 19 -45 19c-15 1 -27 -9 -27 -18c0 -11 12 -16 23 -16c17 -1 38 10 49 15zM11 -65c-81 -20 -248 -129 -248 -228c0 -24 24 -42 48 -42c80 0 200 173 200 270z" />
    <glyph glyph-name="endash" unicode="&#x2013;" horiz-adv-x="414" 
d="M408 200c0 -4 -6 -10 -14 -17c-33 -24 -70 -39 -107 -42h-3c-3 0 -9 0 -16 1l-131 18l-29 3c-29 2 -52 0 -69 -7c-13 -5 -23 -7 -29 -7c-4 0 -6 2 -6 5c0 12 19 29 44 38c41 17 62 22 88 22c25 0 83 -8 148 -20c18 -3 33 -4 43 -4c17 0 35 4 50 12c8 4 16 7 20 7
c7 0 11 -3 11 -9z" />
    <glyph glyph-name="emdash" unicode="&#x2014;" horiz-adv-x="604" 
d="M560 200c0 -4 -6 -10 -14 -17c-33 -24 -70 -39 -107 -42h-3c-3 0 -9 0 -16 1l-263 18l-29 3c-29 2 -52 0 -69 -7c-13 -5 -23 -7 -29 -7c-4 0 -6 2 -6 5c0 12 19 29 44 38c41 17 62 22 88 22c25 0 215 -8 280 -20c18 -3 33 -4 43 -4c17 0 35 4 50 12c8 4 16 7 20 7
c7 0 11 -3 11 -9z" />
    <glyph glyph-name="quoteleft" unicode="&#x2018;" horiz-adv-x="0" 
d="M-126 802c41 0 91 -53 179 -99v-7c-91 47 -195 59 -195 95c0 7 9 11 16 11z" />
    <glyph glyph-name="quoteright" unicode="&#x2019;" horiz-adv-x="158" 
d="M253 624c0 -42 -14 -69 -51 -110c-15 -16 -34 -29 -46 -29c0 0 -9 1 -9 7c0 8 10 8 20 15c8 6 31 24 31 40c0 5 -2 11 -7 13c-20 10 -39 24 -39 49c0 31 26 61 56 61c23 0 45 -21 45 -46z" />
    <glyph glyph-name="quotesinglbase" unicode="&#x201a;" horiz-adv-x="244" 
d="M127 54c0 -42 -14 -69 -51 -110c-15 -16 -34 -29 -46 -29c0 0 -9 1 -9 7c0 8 10 8 20 15c8 6 31 24 31 40c0 5 -2 11 -7 13c-20 10 -39 24 -39 49c0 31 26 61 56 61c23 0 45 -21 45 -46z" />
    <glyph glyph-name="quotedblleft" unicode="&#x201c;" horiz-adv-x="218" 
d="M127 531c0 42 14 69 51 110c15 16 34 29 46 29c0 0 9 -1 9 -7c0 -8 -10 -8 -20 -15c-8 -6 -31 -24 -31 -40c0 -5 2 -11 7 -13c20 -10 39 -24 39 -49c0 -31 -26 -61 -56 -61c-23 0 -45 21 -45 46zM242 531c0 42 14 69 51 110c15 16 34 29 46 29c0 0 9 -1 9 -7
c0 -8 -10 -8 -20 -15c-8 -6 -31 -24 -31 -40c0 -5 2 -11 7 -13c20 -10 39 -24 39 -49c0 -31 -26 -61 -56 -61c-23 0 -45 21 -45 46z" />
    <glyph glyph-name="quotedblright" unicode="&#x201d;" horiz-adv-x="218" 
d="M348 624c0 -42 -14 -69 -51 -110c-15 -16 -34 -29 -46 -29c0 0 -9 1 -9 7c0 8 10 8 20 15c8 6 31 24 31 40c0 5 -2 11 -7 13c-20 10 -39 24 -39 49c0 31 26 61 56 61c23 0 45 -21 45 -46zM233 624c0 -42 -14 -69 -51 -110c-15 -16 -34 -29 -46 -29c0 0 -9 1 -9 7
c0 8 10 8 20 15c8 6 31 24 31 40c0 5 -2 11 -7 13c-20 10 -39 24 -39 49c0 31 26 61 56 61c23 0 45 -21 45 -46z" />
    <glyph glyph-name="quotedblbase" unicode="&#x201e;" horiz-adv-x="355" 
d="M127 54c0 -42 -14 -69 -51 -110c-15 -16 -34 -29 -46 -29c0 0 -9 1 -9 7c0 8 10 8 20 15c8 6 31 24 31 40c0 5 -2 11 -7 13c-20 10 -39 24 -39 49c0 31 26 61 56 61c23 0 45 -21 45 -46zM246 54c0 -42 -14 -69 -51 -110c-15 -16 -34 -29 -46 -29c0 0 -9 1 -9 7
c0 8 10 8 20 15c8 6 31 24 31 40c0 5 -2 11 -7 13c-20 10 -39 24 -39 49c0 31 26 61 56 61c23 0 45 -21 45 -46z" />
    <glyph glyph-name="dagger" unicode="&#x2020;" horiz-adv-x="458" 
d="M556 426c-5 -22 -31 -40 -53 -40c-31 0 -70 34 -136 34c-24 -55 -40 -97 -31 -170c-66 -78 -122 -192 -190 -352h-17c68 158 104 268 106 349c60 62 86 113 111 174c-69 0 -98 -33 -146 -33c-24 0 -38 15 -32 42c4 22 32 37 54 37c46 0 43 -28 135 -28
c43 109 16 92 33 173c5 24 30 45 63 45c16 0 36 -20 30 -47c-9 -39 -72 -75 -112 -173c67 0 94 28 143 28c26 0 47 -13 42 -39z" />
    <glyph glyph-name="daggerdbl" unicode="&#x2021;" horiz-adv-x="458" 
d="M348 421c-69 0 -100 -33 -148 -33c-24 0 -38 15 -32 42c4 22 32 37 54 37c46 0 43 -28 135 -28c43 109 16 92 33 173c5 24 30 45 63 45c16 0 36 -20 30 -47c-9 -39 -72 -75 -112 -173c67 0 94 28 143 28c26 0 47 -13 42 -39c-5 -22 -31 -40 -53 -40c-31 0 -70 34 -136 34
c-13 -29 -40 -105 -34 -144c-35 -33 -76 -109 -91 -149c69 0 98 33 146 33c24 0 38 -15 32 -42c-4 -22 -32 -37 -54 -37c-46 0 -43 28 -135 28c-43 -109 -16 -92 -33 -173c-5 -24 -30 -45 -63 -45c-16 0 -36 20 -30 47c9 39 72 75 112 173c-67 0 -94 -28 -143 -28
c-26 0 -47 13 -42 39c5 22 31 40 53 40c31 0 70 -34 136 -34c19 41 49 122 45 157c33 29 69 105 82 136z" />
    <glyph glyph-name="bullet" unicode="&#x2022;" horiz-adv-x="256" 
d="M236 346c0 -72 -70 -180 -147 -180c-35 0 -64 29 -64 67c0 75 99 168 157 168c34 0 54 -21 54 -55z" />
    <glyph glyph-name="ellipsis" unicode="&#x2026;" horiz-adv-x="600" 
d="M542 50c0 -30 -28 -60 -58 -60c-25 0 -42 21 -42 50c0 30 28 60 58 60c25 0 42 -21 42 -50zM342 50c0 -30 -28 -60 -58 -60c-25 0 -42 21 -42 50c0 30 28 60 58 60c25 0 42 -21 42 -50zM142 50c0 -30 -28 -60 -58 -60c-25 0 -42 21 -42 50c0 30 28 60 58 60
c25 0 42 -21 42 -50z" />
    <glyph glyph-name="perthousand" unicode="&#x2030;" horiz-adv-x="626" 
d="M381 209c0 -80 -70 -200 -147 -200c-35 0 -64 32 -64 74c0 83 99 187 157 187c34 0 54 -23 54 -61zM362 198c0 26 -1 49 -26 49c-49 0 -108 -134 -108 -187c0 -19 7 -30 21 -30c27 0 113 84 113 168zM491 599c0 -27 -32 -54 -118 -101c-101 -152 -258 -347 -282 -376
c-38 -46 -82 -128 -82 -128s-6 -6 -20 -6h-12c-14 0 -25 -28 -25 -28l-12 1c31 95 59 139 128 210l68 74c80 90 103 116 197 240l-73 -13c-31 -88 -94 -139 -137 -139c-35 0 -65 31 -65 70c0 74 86 190 162 190c30 0 48 -22 48 -58c0 -16 -2 -32 -5 -46c40 3 50 4 88 20
c51 73 88 107 120 107c12 0 20 -7 20 -17zM590 209c0 -80 -70 -200 -147 -200c-35 0 -64 32 -64 74c0 83 99 187 157 187c34 0 54 -23 54 -61zM474 594c0 5 -5 8 -9 8c-18 0 -42 -25 -78 -78c55 32 87 52 87 70zM251 534c0 22 -10 34 -26 34s-31 -16 -31 -36
c0 -25 18 -39 49 -41c5 15 8 30 8 43zM240 475c-44 10 -52 16 -68 52c-42 -73 -55 -111 -55 -144c0 -19 8 -27 25 -27c18 0 78 45 98 119zM571 198c0 26 -1 49 -26 49c-49 0 -108 -134 -108 -187c0 -19 7 -30 21 -30c27 0 113 84 113 168z" />
    <glyph glyph-name="guilsinglleft" unicode="&#x2039;" horiz-adv-x="174" 
d="M133 75l-91 112l157 100l-8 -23l-122 -77l73 -89z" />
    <glyph glyph-name="guilsinglright" unicode="&#x203a;" horiz-adv-x="174" 
d="M108 287l91 -112l-157 -100l8 23l122 77l-73 89z" />
    <glyph glyph-name="Euro" unicode="&#x20ac;" horiz-adv-x="470" 
d="M481 361c0 -42 -32 -74 -72 -74c-30 0 -48 15 -48 40c0 31 17 51 44 51c6 0 12 -3 21 -11c-12 -8 -17 -14 -17 -20c0 -10 6 -19 14 -19c15 0 37 20 37 42c0 38 -34 61 -67 61c-83 0 -166 -89 -215 -183h152l-4 -16h-155c-8 -17 -15 -34 -21 -50h144l-4 -16h-145
c-7 -24 -10 -47 -10 -66c0 -41 9 -89 72 -89c57 0 130 51 189 116l9 -7c-60 -69 -142 -127 -216 -127c-104 0 -129 54 -129 104c0 23 3 46 9 69h-48l4 16h49c5 17 12 33 21 50h-38l4 16h42c65 111 189 195 293 195c46 0 85 -33 85 -82z" />
    <glyph glyph-name="fi" unicode="&#xfb01;" horiz-adv-x="442" 
d="M415 416c0 -29 -24 -57 -49 -57c-21 0 -38 18 -38 39c0 28 24 52 51 52c21 0 36 -16 36 -34zM465 218c-79 -94 -200 -233 -264 -233c-35 0 -62 21 -62 60c0 68 75 161 110 225c7 13 9 21 27 21c30 0 20 -9 34 -9c8 0 26 27 38 30l-137 -242c-8 -15 -10 -31 -10 -38
c0 -14 8 -26 24 -26c38 0 208 190 232 219zM371 566c0 -76 -99 -224 -249 -302h55l-10 -18h-71c-177 -334 -276 -594 -446 -594c-57 0 -99 39 -99 90c0 52 45 105 95 105c25 0 49 -24 49 -51c0 -26 -25 -47 -55 -47c-12 0 -21 5 -33 26c21 3 31 9 31 16c0 14 -9 26 -21 26
c-18 0 -52 -42 -52 -84c0 -39 40 -70 85 -70c128 0 191 262 368 583h-60l10 18h61c49 84 208 339 303 339c19 0 39 -19 39 -37zM332 558c0 18 -6 29 -17 29c-36 0 -177 -252 -208 -323c172 127 225 247 225 294z" />
  </font>
</defs>
</svg>
